<svg width="24" height="24" viewBox="0 0 24 24" fill="none" xmlns="http://www.w3.org/2000/svg">
<path fill-rule="evenodd" clip-rule="evenodd" d="M9.97 7.47001C10.1106 7.32956 10.3013 7.25067 10.5 7.25067C10.6988 7.25067 10.8894 7.32956 11.03 7.47001L15.03 11.47C15.1705 11.6106 15.2493 11.8013 15.2493 12C15.2493 12.1988 15.1705 12.3894 15.03 12.53L11.03 16.53C10.9613 16.6037 10.8785 16.6628 10.7865 16.7038C10.6945 16.7448 10.5952 16.7668 10.4945 16.7686C10.3938 16.7704 10.2938 16.7519 10.2004 16.7141C10.107 16.6764 10.0222 16.6203 9.95096 16.549C9.87974 16.4778 9.8236 16.393 9.78588 16.2996C9.74816 16.2062 9.72963 16.1062 9.73141 16.0055C9.73319 15.9048 9.75523 15.8055 9.79622 15.7135C9.83721 15.6215 9.89631 15.5387 9.97 15.47L13.44 12L9.97 8.53001C9.82955 8.38939 9.75066 8.19876 9.75066 8.00001C9.75066 7.80126 9.82955 7.61064 9.97 7.47001Z" fill="#000000"/>
</svg>
