<svg width="37" height="36" viewBox="0 0 37 36" fill="none" xmlns="http://www.w3.org/2000/svg">
<g clip-path="url(#clip0_84_47)">
<path d="M11.9219 27.5625H27.7211C30.0723 27.5625 32.1539 25.9905 32.7852 23.7388L36.208 11.9663C36.3007 11.6477 36.238 11.3041 36.0388 11.0387C35.8396 10.7734 35.5271 10.6172 35.1953 10.6172H8.55025L7.31177 4.83595C6.70912 2.03379 4.18279 0 1.30469 0C0.722219 0 0.25 0.472219 0.25 1.05469C0.25 1.63716 0.722219 2.10938 1.30469 2.10938C3.16495 2.10938 4.86088 3.47224 5.24943 5.27864L9.1311 23.3978C9.32791 24.3131 9.76919 25.1596 10.3961 25.8465C9.4203 26.386 8.75781 27.4255 8.75781 28.6172C8.75781 30.0743 9.74816 31.3038 11.0909 31.6697C10.9471 32.0309 10.8672 32.4242 10.8672 32.8359C10.8672 34.5806 12.2866 36 14.0312 36C15.7759 36 17.1953 34.5806 17.1953 32.8359C17.1953 32.4662 17.131 32.1114 17.0139 31.7812H25.8142C25.6971 32.1114 25.6328 32.4662 25.6328 32.8359C25.6328 34.5806 27.0522 36 28.7969 36C30.5415 36 31.9609 34.5806 31.9609 32.8359C31.9609 32.4662 31.8966 32.1114 31.7795 31.7812H33.0156C33.5981 31.7812 34.0703 31.309 34.0703 30.7266C34.0703 30.1441 33.5981 29.6719 33.0156 29.6719H11.9219C11.3403 29.6719 10.8672 29.1987 10.8672 28.6172C10.8672 28.0356 11.3403 27.5625 11.9219 27.5625Z" fill="url(#paint0_linear_84_47)"/>
<path d="M27.9139 14.8199C27.3392 14.7252 26.7965 15.1143 26.7017 15.6891L25.647 22.0875C25.5523 22.6622 25.9414 23.205 26.5161 23.2997C27.0925 23.3948 27.6338 23.0036 27.7283 22.4306L28.783 16.0321C28.8777 15.4573 28.4887 14.9146 27.9139 14.8199ZM16.1268 15.689C16.0321 15.1143 15.4895 14.7252 14.9146 14.8199C14.3398 14.9146 13.9507 15.4573 14.0454 16.0321L15.1001 22.4305C15.1946 23.0038 15.7362 23.3947 16.3123 23.2996C16.8871 23.2049 17.2762 22.6622 17.1815 22.0874L16.1268 15.689ZM21.4143 14.8059C20.8318 14.8059 20.3596 15.2781 20.3596 15.8606V22.259C20.3596 22.8415 20.8318 23.3137 21.4143 23.3137C21.9967 23.3137 22.469 22.8415 22.469 22.259V15.8606C22.469 15.2781 21.9967 14.8059 21.4143 14.8059Z" fill="url(#paint1_linear_84_47)"/>
</g>
<defs>
<linearGradient id="paint0_linear_84_47" x1="18.25" y1="36" x2="18.25" y2="0" gradientUnits="userSpaceOnUse">
<stop stop-color="#A500FD"/>
<stop offset="1" stop-color="#6400FF"/>
</linearGradient>
<linearGradient id="paint1_linear_84_47" x1="21.4143" y1="23.3139" x2="21.4143" y2="14.8057" gradientUnits="userSpaceOnUse">
<stop stop-color="#D19AFF"/>
<stop offset="1" stop-color="#F2D5FF"/>
</linearGradient>
<clipPath id="clip0_84_47">
<rect width="36" height="36" fill="white" transform="translate(0.25)"/>
</clipPath>
</defs>
</svg>
