<svg width="34" height="35" viewBox="0 0 34 35" fill="none" xmlns="http://www.w3.org/2000/svg">
<path d="M13.6 29.4699C15.1648 29.4699 16.4333 28.2014 16.4333 26.6366C16.4333 25.0717 15.1648 23.8032 13.6 23.8032C12.0352 23.8032 10.7667 25.0717 10.7667 26.6366C10.7667 28.2014 12.0352 29.4699 13.6 29.4699Z" stroke="white" stroke-width="2.26667" stroke-linecap="round" stroke-linejoin="round"/>
<path d="M24.9333 29.4699C26.4981 29.4699 27.7667 28.2014 27.7667 26.6366C27.7667 25.0717 26.4981 23.8032 24.9333 23.8032C23.3685 23.8032 22.1 25.0717 22.1 26.6366C22.1 28.2014 23.3685 29.4699 24.9333 29.4699Z" stroke="white" stroke-width="2.26667" stroke-linecap="round" stroke-linejoin="round"/>
<path d="M4.53333 6.2366H6.85666C7.48795 6.23375 8.10182 6.44351 8.59936 6.83209C9.09691 7.22066 9.44914 7.76543 9.59933 8.3786L11.934 17.6946C12.0863 18.3174 12.447 18.8693 12.9562 19.2589C13.4653 19.6486 14.0924 19.8524 14.7333 19.8366H25.16C25.7544 19.8362 26.3336 19.6488 26.8157 19.301C27.2977 18.9532 27.6582 18.4626 27.846 17.8986L29.852 11.9033C29.9456 11.6463 29.9754 11.3705 29.9389 11.0995C29.9024 10.8285 29.8006 10.5705 29.6423 10.3475C29.484 10.1245 29.2739 9.94336 29.0301 9.81953C28.7863 9.6957 28.5161 9.63292 28.2427 9.6366H10.2" stroke="white" stroke-width="2.26667" stroke-linecap="round" stroke-linejoin="round"/>
</svg>
