<svg width="80" height="80" viewBox="0 0 80 80" fill="none" xmlns="http://www.w3.org/2000/svg">
<path d="M39.25 3.625C39.9971 3.62444 40.7442 3.62387 41.514 3.62329C47.6355 3.74454 52.5941 5.05453 58 8C58.66 8.33 59.32 8.66 60 9C59.0336 11.4162 58.3661 12.7555 56.1758 14.2188C53.4348 15.2029 52.566 14.7746 49.9375 13.625C41.5459 10.5572 34.2203 11.3888 26.0938 14.832C23.9972 16.0016 22.6711 17.3046 21 19C20.34 19 19.68 19 19 19C18.7126 19.5762 18.4251 20.1524 18.1289 20.7461C17.4118 22.1779 16.6909 23.6078 15.9649 25.0352C15.6259 25.7042 15.2868 26.3732 14.9375 27.0625C14.5959 27.7341 14.2543 28.4057 13.9024 29.0977C10.9826 35.2532 11.0206 42.3926 12.7891 48.9062C14.3851 53.0484 15.8467 55.8828 19 59C19 59.66 19 60.32 19 61C19.5763 61.2875 20.1525 61.5749 20.7461 61.8711C22.1779 62.5882 23.6079 63.3092 25.0352 64.0352C25.7042 64.3742 26.3732 64.7132 27.0625 65.0625C27.7341 65.4041 28.4057 65.7457 29.0977 66.0977C35.0923 68.9411 42.127 69.0014 48.5079 67.3516C56.5093 64.0897 62.7231 58.789 66.3086 50.8945C69.2255 42.902 68.3764 35.0204 66 27C68.97 24.525 68.97 24.525 72 22C76.8404 30.9892 77.7224 41.1632 75.2344 51.0391C74.3054 53.4796 73.2609 55.7155 72 58C71.4432 59.0312 70.8863 60.0625 70.3125 61.125C64.6229 68.1987 58.0854 74.1482 49 76C37.8554 77.1953 27.5716 76.9408 18.3555 70.0117C11.1635 63.9148 4.85515 56.7403 3.77836 46.9934C3.12386 34.5901 3.97959 25.4435 12.25 15.6875C20.0307 7.54907 27.8436 3.60332 39.25 3.625Z" fill="black"/>
<path d="M51 19C48.4491 23.2222 48.4491 23.2222 46 25C43.1377 25.3219 40.4701 25.1857 37.5977 25.0118C34.3219 24.997 32.5604 26.0178 30 28C29.34 28 28.68 28 28 28C27.6907 28.7838 27.3813 29.5675 27.0625 30.375C26 33 26 33 25 35C24.4677 40.7843 24.4011 45.2015 28 50C28 50.66 28 51.32 28 52C28.7838 52.3094 29.5675 52.6188 30.375 52.9375C33 54 33 54 35 55C39.9252 55.5404 43.8694 55.5444 48.375 53.375C52.4779 49.6629 55.0377 46.5249 55.4375 40.9375C56.1045 36.2688 57.3392 34.8572 61 32C61.66 32 62.32 32 63 32C64.4492 40.1437 64.1432 46.6899 60 54C54.6523 60.4692 48.3417 63.5099 40.125 64.4375C33.0435 64.0897 26.8982 61.4325 22.0625 56.25C17.7965 50.8169 15.314 45.1843 15.6602 38.1368C16.8587 30.6015 19.8561 25.12 25.8594 20.4063C34.1995 14.9274 42.0793 14.5397 51 19Z" fill="black"/>
<path d="M72.0755 6.21595C74 7.00002 74 7.00002 76 9.00002C75.6583 12.1787 74.5169 13.8681 72.3196 16.1162C71.7584 16.6965 71.1972 17.2768 70.6191 17.8747C69.7035 18.7953 69.7035 18.7953 68.7695 19.7344C68.1415 20.3724 67.5134 21.0105 66.8664 21.6678C65.5362 23.0131 64.202 24.3544 62.864 25.6919C60.8215 27.741 58.8042 29.8128 56.7871 31.8867C55.491 33.1916 54.1936 34.495 52.8945 35.7969C52.2943 36.4187 51.694 37.0405 51.0756 37.6811C46.7756 41.9124 46.7756 41.9124 42.5691 42.3877C41.7213 42.2598 40.8735 42.1318 40 42C39.5311 39.0199 39.4233 36.8662 41.1371 34.2923C42.8328 32.3893 44.5979 30.5971 46.4219 28.8164C47.0782 28.1567 47.7346 27.4969 48.4109 26.8171C49.7992 25.4291 51.195 24.0486 52.5976 22.6751C54.7478 20.5647 56.867 18.4264 58.9844 16.2832C60.3368 14.9384 61.6909 13.5952 63.0469 12.2539C63.6824 11.6114 64.318 10.9688 64.9728 10.3068C65.5731 9.72547 66.1735 9.14414 66.792 8.54519C67.316 8.02812 67.8401 7.51105 68.38 6.97831C70 6.00002 70 6.00002 72.0755 6.21595Z" fill="#DA192A"/>
</svg>
