<svg width="34" height="35" viewBox="0 0 34 35" fill="none" xmlns="http://www.w3.org/2000/svg">
<path d="M17 29.3637C16.7875 29.3637 16.575 29.2575 16.3625 29.1512C8.92499 23.945 5.09999 19.0575 4.67499 14.3825V13.0012C5.09999 8.43248 8.07499 6.09498 10.7312 5.88248C14.025 5.56373 15.6187 6.62623 17 8.00748C18.3812 6.62623 20.0812 5.56373 23.2687 5.88248C25.925 6.09498 28.9 8.43248 29.325 12.895V14.2762C29.0062 19.0575 25.1812 23.8387 17.6375 29.1512C17.425 29.2575 17.2125 29.3637 17 29.3637ZM11.7937 7.90123C11.475 7.90123 11.1562 7.90123 10.8375 7.90123C9.03124 8.11373 7.01249 9.70748 6.69374 13.0012V14.17C7.01249 17.8887 10.4125 22.245 16.8937 26.8137C23.375 22.1387 26.775 17.8887 27.0937 14.0637V12.895C26.8812 9.70748 24.7562 8.00748 22.95 7.90123C20.4 7.68873 19.2312 8.32623 17.7437 10.2387C17.5312 10.4512 17.2125 10.6637 16.8937 10.6637C16.575 10.6637 16.2562 10.5575 16.0437 10.2387C14.7687 8.64498 13.8125 7.90123 11.7937 7.90123Z" fill="white"/>
</svg>
