<svg width="34" height="35" viewBox="0 0 34 35" fill="none" xmlns="http://www.w3.org/2000/svg">
<path d="M28.1562 9.6012V25.5387C28.1562 26.3841 27.8204 27.1948 27.2227 27.7926C26.6249 28.3904 25.8141 28.7262 24.9688 28.7262H21.25C20.9682 28.7262 20.698 28.6143 20.4987 28.415C20.2994 28.2157 20.1875 27.9455 20.1875 27.6637C20.1875 27.3819 20.2994 27.1117 20.4987 26.9124C20.698 26.7131 20.9682 26.6012 21.25 26.6012H24.9688C25.2505 26.6012 25.5208 26.4893 25.7201 26.29C25.9193 26.0907 26.0312 25.8205 26.0312 25.5387V9.6012C26.0312 9.3194 25.9193 9.04915 25.7201 8.8499C25.5208 8.65064 25.2505 8.5387 24.9688 8.5387H21.25C20.9682 8.5387 20.698 8.42675 20.4987 8.2275C20.2994 8.02824 20.1875 7.75799 20.1875 7.4762C20.1875 7.1944 20.2994 6.92415 20.4987 6.7249C20.698 6.52564 20.9682 6.4137 21.25 6.4137H24.9688C25.8141 6.4137 26.6249 6.74952 27.2227 7.34729C27.8204 7.94507 28.1562 8.75582 28.1562 9.6012ZM18.0625 4.81995V30.3199C18.0625 30.6017 17.9506 30.872 17.7513 31.0712C17.552 31.2705 17.2818 31.3824 17 31.3824C16.7182 31.3824 16.448 31.2705 16.2487 31.0712C16.0494 30.872 15.9375 30.6017 15.9375 30.3199V28.7262H9.03125C8.18587 28.7262 7.37512 28.3904 6.77735 27.7926C6.17958 27.1948 5.84375 26.3841 5.84375 25.5387V9.6012C5.84375 8.75582 6.17958 7.94507 6.77735 7.34729C7.37512 6.74952 8.18587 6.4137 9.03125 6.4137H15.9375V4.81995C15.9375 4.53815 16.0494 4.2679 16.2487 4.06865C16.448 3.86939 16.7182 3.75745 17 3.75745C17.2818 3.75745 17.552 3.86939 17.7513 4.06865C17.9506 4.2679 18.0625 4.53815 18.0625 4.81995ZM15.9375 26.6012V8.5387H9.03125C8.74946 8.5387 8.47921 8.65064 8.27995 8.8499C8.08069 9.04915 7.96875 9.3194 7.96875 9.6012V25.5387C7.96875 25.8205 8.08069 26.0907 8.27995 26.29C8.47921 26.4893 8.74946 26.6012 9.03125 26.6012H15.9375Z" fill="white"/>
</svg>
