<svg width="80" height="80" viewBox="0 0 80 80" fill="none" xmlns="http://www.w3.org/2000/svg">
<path d="M37.0017 6.59496C38.7835 6.57341 40.5652 6.53936 42.3464 6.49242C44.9228 6.42516 47.4971 6.39791 50.0742 6.37889C50.863 6.35106 51.6518 6.32323 52.4645 6.29456C58.053 6.31513 60.7776 7.83012 64.7825 11.7093C65.3852 12.3482 65.3852 12.3482 66 13C64.8483 15.468 63.9522 17.0478 62 19C59.9375 18.8125 59.9375 18.8125 58 18C57.505 16.515 57.505 16.515 57 15C36.0118 13.1225 36.0118 13.1226 17.4854 20.167C14.351 23.7919 12.0157 27.6414 10 32C10.7129 32.7012 11.4257 33.4025 12.1602 34.125C17.0853 38.995 21.8816 43.8863 26.3789 49.1601C28.6098 51.6921 31.0152 54.0273 33.4219 56.3906C35.4551 58.4641 37.2476 60.6868 39 63C42.9256 61.4352 45.0955 58.9426 47.875 55.8125C48.8389 54.7361 49.8038 53.6606 50.7695 52.5859C51.2847 52.0107 51.7998 51.4354 52.3306 50.8428C55.9607 46.8357 59.6898 42.9187 63.4038 38.9895C63.9731 38.3832 64.5424 37.777 65.1289 37.1523C65.6349 36.616 66.141 36.0797 66.6624 35.5271C68.2083 33.8295 68.2083 33.8295 70 31C69.01 29.35 68.02 27.7 67 26C68.75 23.9375 68.75 23.9375 71 22C73 21.9375 73 21.9375 75 23C77.654 25.5803 78.8924 27.139 79.3555 30.8437C78.909 34.8084 77.6595 36.316 75.0625 39.3125C74.2414 40.2638 73.4202 41.2151 72.5742 42.1953C69.5177 45.5254 66.3627 48.7255 63.125 51.8789C60.4997 54.4994 58.1029 57.2774 55.6875 60.0898C53.4385 62.6355 51.0601 65.0237 48.6211 67.3867C47.1497 68.851 45.7858 70.4215 44.4375 72C42 74 42 74 39.0898 73.875C35.4824 72.8534 34.4665 71.8758 32.125 69C30.9842 67.6542 30.9842 67.6542 29.8203 66.2812C29.3862 65.7682 28.9521 65.2551 28.5049 64.7265C25.4463 61.2174 22.205 57.8748 19 54.5C1.344 35.806 1.344 35.806 0.5 31.375C1.2691 26.1836 4.43988 23.6881 8 20C8.95155 18.9551 9.89924 17.9067 10.8438 16.8555C11.8331 15.7576 12.8227 14.6599 13.8125 13.5625C14.2924 13.0299 14.7724 12.4974 15.2668 11.9487C21.366 5.27561 28.4824 6.67237 37.0017 6.59496Z" fill="black"/>
<path d="M74 14C73.4535 17.9133 71.7006 19.5872 68.875 22.25C65.3201 25.6204 62.0886 29.1514 58.8867 32.8506C55.6993 36.4818 52.378 39.986 49.0625 43.5C48.3787 44.227 47.6948 44.9541 46.9902 45.7031C45.3281 47.4699 43.6646 49.2355 42 51C38.0573 49.6858 36.563 47.1572 34.1875 43.9375C33.5265 43.0571 33.5265 43.0571 32.8521 42.1589C31.971 40.9846 31.0927 39.8083 30.2173 38.6299C29.1634 37.2188 28.0893 35.8228 27.0117 34.4297C26.4716 33.731 25.9315 33.0323 25.375 32.3125C24.9084 31.7105 24.4417 31.1085 23.9609 30.4883C23 29 23 29 23 27C28.6134 28.6204 32.6186 31.3493 37.3164 34.7344C39.8766 36.2625 39.8766 36.2625 42.3633 35.5547C45.9936 33.4141 49.2932 30.9501 52.625 28.375C54.0465 27.2938 55.4684 26.2131 56.8906 25.1328C57.5861 24.602 58.2815 24.0713 58.998 23.5244C61.7743 21.4104 64.5674 19.3223 67.375 17.25C68.2284 16.6158 69.0817 15.9816 69.9609 15.3281C72 14 72 14 74 14Z" fill="#DA192A"/>
<path d="M74 14C73.4304 17.6261 72.0763 19.2552 69.4375 21.75C68.7968 22.3636 68.1562 22.9772 67.4961 23.6094C66.7555 24.2977 66.7555 24.2977 66 25C65.67 24.34 65.34 23.68 65 23C63.35 23.33 61.7 23.66 60 24C69.4286 14 69.4286 14 74 14Z" fill="#DA192A"/>
<path d="M23 27C28.8034 28.4881 33.1759 31.591 38 35C37.01 35.495 37.01 35.495 36 36C33.6402 35.0642 31.3037 34.0665 29 33C29.33 34.32 29.66 35.64 30 37C26.6058 33.8738 24.3937 31.4346 23 27Z" fill="#DA192A"/>
</svg>
