<svg width="42" height="42" viewBox="0 0 42 42" fill="none" xmlns="http://www.w3.org/2000/svg">
<path d="M38.4529 34.4532C36.2035 30.5053 32.6911 27.4293 28.4812 25.7201C30.5747 24.1499 32.1212 21.9608 32.9015 19.4629C33.6818 16.965 33.6564 14.2848 32.8288 11.8022C32.0012 9.31947 30.4135 7.16011 28.2905 5.62994C26.1675 4.09977 23.6169 3.27637 20.9999 3.27637C18.3829 3.27637 15.8323 4.09977 13.7093 5.62994C11.5863 7.16011 9.99857 9.31947 9.17101 11.8022C8.34345 14.2848 8.31802 16.965 9.09831 19.4629C9.87861 21.9608 11.4251 24.1499 13.5187 25.7201C9.30868 27.4293 5.7963 30.5053 3.54694 34.4532C3.40756 34.6773 3.31466 34.9271 3.27377 35.1879C3.23288 35.4486 3.24483 35.7149 3.30892 35.9709C3.373 36.2269 3.4879 36.4675 3.6468 36.6782C3.80569 36.8889 4.00533 37.0655 4.23386 37.1976C4.46238 37.3296 4.71511 37.4143 4.97703 37.4467C5.23896 37.4791 5.50472 37.4585 5.75853 37.3862C6.01234 37.3138 6.249 37.1912 6.45446 37.0255C6.65992 36.8599 6.82997 36.6546 6.95451 36.4219C9.92733 31.2835 15.1773 28.2188 20.9999 28.2188C26.8225 28.2188 32.0725 31.2851 35.0453 36.4219C35.3152 36.8559 35.7433 37.1679 36.2391 37.292C36.7349 37.4161 37.2595 37.3426 37.702 37.0869C38.1445 36.8312 38.4703 36.4135 38.6104 35.922C38.7505 35.4305 38.694 34.9038 38.4529 34.4532ZM12.4687 15.75C12.4687 14.0627 12.969 12.4133 13.9064 11.0103C14.8439 9.60737 16.1763 8.5139 17.7351 7.86819C19.294 7.22248 21.0094 7.05353 22.6643 7.38271C24.3192 7.71189 25.8393 8.52442 27.0324 9.71753C28.2255 10.9107 29.038 12.4308 29.3672 14.0857C29.6964 15.7406 29.5275 17.4559 28.8818 19.0148C28.236 20.5737 27.1426 21.9061 25.7396 22.8435C24.3367 23.7809 22.6872 24.2813 20.9999 24.2813C18.7381 24.2787 16.5696 23.379 14.9703 21.7797C13.3709 20.1803 12.4713 18.0119 12.4687 15.75Z" fill="#757575"/>
</svg>
