<svg width="70" height="71" viewBox="0 0 70 71" fill="none" xmlns="http://www.w3.org/2000/svg">
<g clip-path="url(#clip0_25_936)">
<g clip-path="url(#clip1_25_936)">
<path d="M26.1477 16.2426C26.4069 17.4289 26.3473 18.6627 25.975 19.8184C25.6027 20.9742 24.9309 22.0107 24.028 22.8226L29.3568 23.1661H43.9999C44.6536 23.1664 45.301 23.0379 45.905 22.7879C46.5091 22.5379 47.0579 22.1714 47.5203 21.7092C47.9826 21.2471 48.3494 20.6984 48.5996 20.0945C48.8499 19.4905 48.9787 18.8432 48.9787 18.1895V17.7258C48.9781 17.2234 48.9044 16.7238 48.7599 16.2426H26.1477ZM16.4046 45.2489H9.9624L10.0127 27.2479V16.2426C10.0127 16.2426 11.2683 10.8198 16.1858 10.8198C21.9237 10.8198 22.3108 16.2426 22.7987 16.2426C22.7987 16.2426 21.8733 23.1661 17.4983 23.1661L16.4046 18.9179V45.2489ZM59.0608 60.2245H56.8733V29.1926C56.8733 28.9256 56.926 28.6611 57.0282 28.4144C57.1305 28.1677 57.2804 27.9436 57.4693 27.7549C57.6583 27.5662 57.8825 27.4165 58.1294 27.3145C58.3762 27.2125 58.6407 27.1602 58.9077 27.1604C59.4469 27.1604 59.964 27.3745 60.3455 27.7555C60.7269 28.1366 60.9415 28.6535 60.9421 29.1926V57.9276C60.9834 58.4788 60.8111 59.0247 60.4608 59.4523C60.1106 59.8799 59.6093 60.1564 59.0608 60.2245Z" fill="#D9DFE4"/>
<path d="M28.4357 31.566H39.3732V33.7535H28.4357V31.566ZM28.4357 40.2963H39.3732V42.4838H28.4357V40.2963ZM28.4379 49.0573H39.3754V51.2448H28.4379V49.0573ZM21.3635 33.0667C21.5686 33.2717 21.8468 33.3869 22.1368 33.3869C22.4268 33.3869 22.705 33.2717 22.9101 33.0667L26.8892 29.092L25.3448 27.5454L22.1357 30.7479L21.1054 29.7176L19.5588 31.2642L21.3635 33.0667ZM21.3635 42.241C21.5686 42.4461 21.8468 42.5613 22.1368 42.5613C22.4268 42.5613 22.705 42.4461 22.9101 42.241L26.8892 38.2663L25.3448 36.7198L22.1357 39.9223L21.1054 38.892L19.5588 40.4385L21.3635 42.241Z" fill="#DA192A"/>
<path d="M42.6765 9.71535H16.4615C14.4328 9.71824 12.4882 10.5262 11.0548 11.9617C9.6213 13.3972 8.81616 15.3429 8.81616 17.3716V45.761C8.81616 46.0511 8.9314 46.3293 9.13651 46.5344C9.34163 46.7395 9.61983 46.8547 9.90991 46.8547H15.3787V61.056C15.3787 61.3461 15.4939 61.6243 15.699 61.8294C15.9041 62.0345 16.1823 62.1497 16.4724 62.1497H42.6765C42.9666 62.1497 43.2448 62.0345 43.4499 61.8294C43.655 61.6243 43.7702 61.3461 43.7702 61.056V24.9207C45.685 24.6476 47.425 23.6585 48.6392 22.1529C49.8534 20.6473 50.4514 18.7372 50.3126 16.8081C50.1738 14.8789 49.3086 13.0741 47.8914 11.7578C46.4743 10.4415 44.6107 9.71158 42.6765 9.71535ZM16.4615 18.4544C16.1714 18.4544 15.8932 18.5696 15.6881 18.7748C15.483 18.9799 15.3677 19.2581 15.3677 19.5482V44.6803H10.9927V17.3607C10.9927 15.9103 11.5689 14.5193 12.5945 13.4937C13.6201 12.4681 15.0111 11.8919 16.4615 11.8919C17.2718 11.893 18.0717 12.0742 18.8034 12.4224C19.5351 12.7705 20.1803 13.2769 20.6923 13.9049C21.2044 14.5329 21.5705 15.2668 21.7641 16.0536C21.9578 16.8405 21.9742 17.6605 21.8121 18.4544H16.4615ZM20.8365 20.6419C20.0335 21.7119 18.8661 22.4505 17.5552 22.7178V20.6375L20.8365 20.6419ZM41.5915 59.9644H17.5552V25.0082H41.5849L41.5915 59.9644ZM42.6852 22.8272H21.8034C22.5329 22.1171 23.1127 21.2679 23.5087 20.33C23.9046 19.392 24.1086 18.3842 24.1086 17.3661C24.1086 16.348 23.9046 15.3402 23.5087 14.4023C23.1127 13.4643 22.5329 12.6152 21.8034 11.905H42.6765C44.0748 11.9791 45.3915 12.5868 46.3551 13.6028C47.3188 14.6188 47.8559 15.9658 47.8559 17.3661C47.8559 18.7665 47.3188 20.1134 46.3551 21.1295C45.3915 22.1455 44.0748 22.7532 42.6765 22.8272H42.6852ZM61.2484 41.3991V27.5566C61.252 26.5958 60.9378 25.6607 60.3547 24.897C59.7717 24.1334 58.9524 23.5839 58.0246 23.3343C57.0967 23.0847 56.1124 23.1489 55.2248 23.5169C54.3373 23.885 53.5964 24.5361 53.1174 25.3691H52.5115C51.3512 25.3691 50.2384 25.83 49.4179 26.6505C48.5974 27.471 48.1365 28.5838 48.1365 29.7441V44.6803C48.1365 44.9704 48.2517 45.2486 48.4568 45.4537C48.6619 45.6589 48.9401 45.7741 49.2302 45.7741C49.5203 45.7741 49.7985 45.6589 50.0036 45.4537C50.2087 45.2486 50.324 44.9704 50.324 44.6803V29.7419C50.324 29.1617 50.5544 28.6053 50.9647 28.1951C51.3749 27.7849 51.9313 27.5544 52.5115 27.5544V57.7769C52.5727 58.8941 53.0597 59.9453 53.8722 60.7145C54.6847 61.4837 55.7611 61.9124 56.8799 61.9124C57.9988 61.9124 59.0751 61.4837 59.8876 60.7145C60.7001 59.9453 61.1871 58.8941 61.2484 57.7769V56.6832V41.3991ZM56.8734 59.9666C56.2932 59.9666 55.7368 59.7361 55.3266 59.3259C54.9163 58.9157 54.6859 58.3593 54.6859 57.7791H59.0609C59.0591 58.3581 58.8279 58.9128 58.4178 59.3217C58.0078 59.7305 57.4524 59.96 56.8734 59.96V59.9666ZM59.0609 55.5916H54.6859V42.4928H59.0609V55.5916ZM59.0609 40.3053H54.6859V27.5566C54.6859 26.9764 54.9163 26.42 55.3266 26.0098C55.7368 25.5996 56.2932 25.3691 56.8734 25.3691C57.4535 25.3691 58.0099 25.5996 58.4202 26.0098C58.8304 26.42 59.0609 26.9764 59.0609 27.5566V40.3053Z" fill="black"/>
</g>
</g>
<defs>
<clipPath id="clip0_25_936">
<rect width="70" height="70" fill="white" transform="translate(-0.00170898 0.930176)"/>
</clipPath>
<clipPath id="clip1_25_936">
<rect width="70" height="70" fill="white" transform="translate(-0.00170898 0.930176)"/>
</clipPath>
</defs>
</svg>
