<svg width="32" height="32" viewBox="0 0 32 32" fill="none" xmlns="http://www.w3.org/2000/svg">
<g clip-path="url(#clip0_42_6)">
<path d="M16.001 0C10.7281 0 6.40039 4.3136 6.40039 9.57504C6.40039 11.6141 7.05319 13.5142 8.15399 15.0707L8.11463 15.0093L14.2602 25.6326L14.2916 25.6733C14.5393 25.9965 14.7844 26.257 15.081 26.4531C15.3777 26.6493 15.7575 26.7731 16.1306 26.7357C16.8762 26.6608 17.3095 26.1456 17.7098 25.6029L17.7348 25.5693L24.5105 14.0384L24.5159 14.0288C24.6782 13.736 24.7956 13.4406 24.8961 13.1546C25.3607 12.0183 25.6 10.8026 25.6004 9.57504C25.6004 4.3136 21.274 0 16.001 0ZM16.001 1.6C20.4023 1.6 24.0004 5.18976 24.0004 9.57504C24.0007 10.5993 23.8007 11.6138 23.4116 12.5613L23.4036 12.5811L23.3966 12.6019C23.3124 12.8442 23.2209 13.064 23.1153 13.2547L16.4084 24.6678C16.1114 25.0589 15.9044 25.151 15.971 25.144C16.0052 25.1408 16.0369 25.1677 15.9636 25.119C15.8935 25.073 15.7505 24.9366 15.5809 24.7203L9.48199 14.176L9.46087 14.1462C8.54087 12.847 8.00039 11.2736 8.00039 9.57504C8.00039 5.19008 11.5998 1.6 16.001 1.6ZM16.001 4.112C12.9732 4.112 10.5242 6.55232 10.5242 9.57504C10.5242 12.5978 12.9735 15.0381 16.001 15.0381C19.0286 15.0381 21.4766 12.5974 21.4766 9.57504C21.4766 6.55232 19.0286 4.112 16.001 4.112ZM16.001 5.712C18.1825 5.712 19.8766 7.4032 19.8766 9.57504C19.8766 11.7469 18.1828 13.4381 16.001 13.4381C13.8193 13.4381 12.1242 11.7466 12.1242 9.57504C12.1242 7.4032 13.8196 5.712 16.001 5.712Z" fill="white"/>
<path d="M20.4309 23.4731L19.9884 24.0203C20.5868 24.0927 21.166 24.1775 21.7084 24.2802L19.9551 24.7995L22.2953 25.4219L24.0396 24.8719C25.1109 25.2312 26.5945 25.6706 27.086 26.1701H23.5884L23.9359 27.1864H27.5653C27.5545 27.7592 26.5305 28.2245 25.5525 28.6015L23.0722 28.0651L20.7353 28.9026L23.2313 29.4722C21.774 29.869 19.3273 30.1103 17.3017 30.2213L17.2165 29.0565H14.7826L14.6972 30.2213C12.6716 30.1103 10.2252 29.8693 8.76758 29.4725L11.2639 28.9026L8.92694 28.0651L6.4463 28.6015C5.48246 28.3087 4.4447 27.7589 4.43382 27.1864H8.06358L8.4111 26.1701H4.9135C5.40502 25.6706 6.88854 25.2312 7.9599 24.8719L9.70422 25.4219L12.0444 24.7995L10.2911 24.2802C10.8573 24.1755 11.4268 24.0894 11.9986 24.0219L11.5625 23.4738C6.83126 23.9656 2.8991 25.013 1.86806 26.6671C0.22358 29.3032 6.29014 31.9551 15.798 31.9963C15.9394 32.0034 16.0789 31.9983 16.2108 31.9963C25.7132 31.9528 31.7743 29.3019 30.1311 26.6671C29.0994 25.0123 25.165 23.9647 20.4309 23.4731Z" fill="white"/>
</g>
<defs>
<clipPath id="clip0_42_6">
<rect width="32" height="32" fill="white"/>
</clipPath>
</defs>
</svg>
