<svg width="71" height="71" viewBox="0 0 71 71" fill="none" xmlns="http://www.w3.org/2000/svg">
<g clip-path="url(#clip0_25_974)">
<g clip-path="url(#clip1_25_974)">
<path d="M54.5633 16.2056C56.9427 19.373 58.2459 23.2188 58.2821 27.1803C58.2821 39.2618 46.0408 49.0553 30.9383 49.0553C23.6031 49.1722 16.4687 46.657 10.8286 41.9656C13.1167 46.2093 17.3911 49.3943 22.1883 52.3365V62.1803L30.0239 58.2909C32.2984 58.8042 34.6223 59.0669 36.9539 59.074C50.6258 59.074 64.8446 46.8678 64.8446 34.924C64.7698 31.2056 63.7955 27.5607 62.0051 24.3009C60.2146 21.0411 57.6612 18.2635 54.5633 16.2056Z" fill="#DCDEE3"/>
<path d="M33.1085 27.8255L38.2885 32.1414L39.1985 32.9005L40.3316 32.5505L44.6344 31.2292L37.3697 37.5227L31.1157 33.0558L30.2341 32.428L29.2016 32.7452L25.7432 33.8105L33.1085 27.8255ZM33.126 24.9927L15.626 39.2114L29.8447 34.8364L37.501 40.3052L53.9072 26.0864L39.6885 30.4614L33.126 24.9927Z" fill="#DA192A"/>
<path d="M35.3135 7.49268C51.0197 7.49268 63.751 18.7561 63.751 32.6489C63.751 46.5417 51.0197 57.8052 35.3135 57.8052C32.9353 57.7983 30.5653 57.5253 28.2479 56.9914L18.9072 62.1802V53.1742C15.3166 51.0645 12.3258 48.0706 10.2198 44.4777C8.11379 40.8848 6.96264 36.8126 6.87598 32.6489C6.87598 18.7561 19.6072 7.49268 35.3135 7.49268ZM35.3135 5.30518C18.426 5.30518 4.68848 17.5705 4.68848 32.6489C4.76764 36.9747 5.90571 41.2152 8.00312 44.9993C10.1005 48.7834 13.0934 51.9958 16.7197 54.3555V65.8989L19.9704 64.0942L28.5935 59.3036C30.805 59.7562 33.0561 59.987 35.3135 59.9927C52.201 59.9927 65.9385 47.7274 65.9385 32.6489C65.9385 17.5705 52.201 5.30518 35.3135 5.30518Z" fill="black"/>
</g>
</g>
<defs>
<clipPath id="clip0_25_974">
<rect width="70" height="70" fill="white" transform="translate(0.313477 0.930176)"/>
</clipPath>
<clipPath id="clip1_25_974">
<rect width="70" height="70" fill="white" transform="translate(0.313477 0.930176)"/>
</clipPath>
</defs>
</svg>
