<svg width="71" height="71" viewBox="0 0 71 71" fill="none" xmlns="http://www.w3.org/2000/svg">
<g clip-path="url(#clip0_25_957)">
<g clip-path="url(#clip1_25_957)">
<path d="M33.4675 15.3677C32.3082 15.3677 31.28 16.6364 31.28 18.1896V62.1802H55.3425C55.9227 62.1802 56.4791 61.9497 56.8893 61.5395C57.2996 61.1292 57.53 60.5728 57.53 59.9927V15.3677H33.4675Z" fill="#D9DFE4"/>
<path d="M35.655 19.5239H53.155V21.7114H35.655V19.5239ZM35.655 32.6489H53.155V34.8364H35.655V32.6489ZM35.655 23.8989H46.5925V26.0864H35.655V23.8989ZM35.655 37.0239H46.5925V39.2114H35.655V37.0239ZM35.655 45.7739H53.155V47.9614H35.655V45.7739ZM35.655 50.1489H46.5925V52.3364H35.655V50.1489ZM55.3425 9.68018H15.9675C14.8072 9.68018 13.6944 10.1411 12.8739 10.9616C12.0535 11.7821 11.5925 12.8949 11.5925 14.0552V59.9927C11.5925 61.153 12.0535 62.2658 12.8739 63.0863C13.6944 63.9067 14.8072 64.3677 15.9675 64.3677H55.3425C56.5028 64.3677 57.6157 63.9067 58.4361 63.0863C59.2566 62.2658 59.7175 61.153 59.7175 59.9927V14.0552C59.7175 12.8949 59.2566 11.7821 58.4361 10.9616C57.6157 10.1411 56.5028 9.68018 55.3425 9.68018ZM57.53 59.9927C57.53 60.5728 57.2996 61.1292 56.8893 61.5395C56.4791 61.9497 55.9227 62.1802 55.3425 62.1802H15.9675C15.3874 62.1802 14.831 61.9497 14.4207 61.5395C14.0105 61.1292 13.78 60.5728 13.78 59.9927V14.0552C13.78 13.475 14.0105 12.9186 14.4207 12.5084C14.831 12.0981 15.3874 11.8677 15.9675 11.8677H55.3425C55.9227 11.8677 56.4791 12.0981 56.8893 12.5084C57.2996 12.9186 57.53 13.475 57.53 14.0552V59.9927Z" fill="black"/>
<path d="M26.6644 18.3428L22.0269 23.0021L19.7082 20.6834L18.155 22.2146L20.4738 24.5334L22.0269 26.0865L28.2175 19.8959L26.6644 18.3428ZM26.6644 32.5615L22.0269 37.2209L19.7082 34.9021L18.155 36.4334L20.4738 38.7521L22.0269 40.3053L28.2175 34.1146L26.6644 32.5615ZM26.6644 45.6865L22.0269 50.3459L19.7082 48.0053L18.155 49.5584L20.4738 51.8772L22.0269 53.4303L28.2175 47.2396L26.6644 45.6865Z" fill="#DA192A"/>
</g>
</g>
<defs>
<clipPath id="clip0_25_957">
<rect width="70" height="70" fill="white" transform="translate(0.655029 0.930176)"/>
</clipPath>
<clipPath id="clip1_25_957">
<rect width="70" height="70" fill="white" transform="translate(0.655029 0.930176)"/>
</clipPath>
</defs>
</svg>
