<svg width="32" height="32" viewBox="0 0 32 32" fill="none" xmlns="http://www.w3.org/2000/svg">
<g clip-path="url(#clip0_42_2)">
<path d="M31.902 1.51486C31.8496 1.62902 31.7774 1.73302 31.6887 1.82206L11.5202 21.9863L17.2162 31.4818C17.3171 31.6507 17.4627 31.7883 17.637 31.8796C17.8113 31.9709 18.0074 32.0122 18.2037 31.9989C18.3999 31.9857 18.5887 31.9184 18.7492 31.8045C18.9096 31.6907 19.0354 31.5347 19.1127 31.3538L31.902 1.51486ZM10.014 20.4802L0.518566 14.7799C0.349693 14.679 0.212013 14.5334 0.120751 14.3591C0.0294883 14.1848 -0.0118021 13.9887 0.00144494 13.7924C0.014692 13.5962 0.0819604 13.4074 0.195813 13.2469C0.309665 13.0865 0.465666 12.9607 0.646566 12.8834L30.4919 0.0961914C30.3761 0.148859 30.2706 0.221832 30.1804 0.311658L10.014 20.4802Z" fill="white"/>
</g>
<defs>
<clipPath id="clip0_42_2">
<rect width="32" height="32" fill="white"/>
</clipPath>
</defs>
</svg>
