<svg width="42" height="42" viewBox="0 0 42 42" fill="none" xmlns="http://www.w3.org/2000/svg">
<path d="M32.8126 16.9925V15.7588C32.8126 8.988 27.5206 3.5 21.0001 3.5C14.4796 3.5 9.18761 8.988 9.18761 15.7588V16.9925C9.18972 18.4652 8.76944 19.9077 7.97661 21.1488L6.03761 24.1675C4.26836 26.9238 5.61936 30.6705 8.69761 31.542C16.7408 33.8222 25.2594 33.8222 33.3026 31.542C36.3809 30.6705 37.7319 26.9237 35.9626 24.1692L34.0236 21.1505C33.2302 19.9096 32.8093 18.4671 32.8109 16.9943L32.8126 16.9925Z" stroke="black" stroke-width="1.5"/>
<path d="M13.125 33.25C14.2712 36.309 17.3635 38.5 21 38.5C24.6365 38.5 27.7288 36.309 28.875 33.25" stroke="black" stroke-width="1.5" stroke-linecap="round"/>
</svg>
