<svg width="42" height="42" viewBox="0 0 42 42" fill="none" xmlns="http://www.w3.org/2000/svg">
<path d="M29.7773 14.4375L20.1797 38.0625H24.0548L26.0638 33.3047H33.4909L35.4998 38.0625H39.375L29.7773 14.4375ZM27.5879 29.6953L29.7773 22.9564L31.9668 29.6953H27.5879ZM22.3125 26.25C22.292 26.2344 20.6235 24.9564 18.5866 22.7497C21.8334 18.3496 23.6726 13.3481 24.4232 10.9922H28.875V7.38281H17.5547V3.9375H13.9453V7.38281H2.625V10.9922H20.6104C19.8294 13.2029 18.3914 16.6934 16.1979 19.8811C13.5171 16.3177 12.3309 13.6566 12.3154 13.6287L11.7305 12.4688L8.61328 14.2734L9.17684 15.4104C9.24984 15.5384 10.587 18.5194 13.6648 22.5118C13.7402 22.6111 13.8165 22.7079 13.8928 22.8047C9.81422 27.469 6.57973 29.2925 6.53789 29.3237L5.25 30.1875L7.13672 33.1406L8.71992 32.1997C8.90039 32.0627 12.1103 30.231 16.2668 25.5732C18.2782 27.729 19.8122 28.9226 19.9008 28.9915L20.918 29.6953L22.3125 26.25Z" fill="#757575"/>
</svg>
