<svg width="24" height="24" viewBox="0 0 32 32" fill="none" xmlns="http://www.w3.org/2000/svg">
<path d="M16 4C9.383 4 4 9.383 4 16C4 22.617 9.383 28 16 28C22.617 28 28 22.617 28 16C28 9.383 22.617 4 16 4ZM16 6C17.8935 6.00348 19.747 6.54558 21.344 7.563L20.531 7.656L20.719 9.656L19.656 9.187L18.781 9.937L18.938 12L21.094 11.312L23.781 12.188L23.094 13.438L21.469 12.438L19.719 12.688L18 13.967L17.031 16.967L18.969 18.562C18.969 18.562 20.957 18.218 21.062 18.218C21.168 18.218 21.906 20.03 21.906 20.03L20.313 25.03C19.012 25.651 17.543 25.999 16 25.999C15.684 25.999 15.371 25.964 15.062 25.936L13.969 24.03L15.031 20.03L11 17H7.281L6.313 15.031L9 12.906L13 11L12.406 8.344L14.125 7.969L14.938 9.094L17.938 8.531L17.406 6.219L15.188 6.062C15.453 6.043 15.726 6 16 6ZM14.875 6.063L13.312 6.719L12.562 6.594C13.3088 6.32425 14.0854 6.14562 14.875 6.062V6.063ZM6.062 16.78L7.032 17.905V19.968L8.906 22.03H10.062L12.906 25.53C9.133 24.308 6.379 20.89 6.062 16.78Z" fill="black"/>
</svg>
