<svg width="80" height="80" viewBox="0 0 80 80" fill="none" xmlns="http://www.w3.org/2000/svg">
<path d="M39.9375 3.75C40.8572 3.72937 41.7769 3.70875 42.7246 3.6875C43.6082 3.68234 44.4919 3.67719 45.4023 3.67188C46.2117 3.66253 47.0212 3.65318 47.8552 3.64355C50.5177 4.08605 51.3929 4.86607 53 7C53.2929 9.48047 53.2929 9.48047 53.1875 12.1875C53.1468 13.5391 53.1468 13.5391 53.1054 14.918C53.0706 15.605 53.0358 16.2921 53 17C54.0306 16.9478 54.0306 16.9478 55.082 16.8945C55.983 16.8675 56.8841 16.8404 57.8125 16.8125C58.7058 16.7777 59.5991 16.7429 60.5195 16.707C63 17 63 17 64.7617 18.3242C66.7943 21.075 67.142 23.6993 67.3164 27.0117C67.3583 27.769 67.4001 28.5264 67.4433 29.3066C67.4826 30.0923 67.5219 30.878 67.5625 31.6875C67.6056 32.4848 67.6488 33.2821 67.6933 34.1035C67.7992 36.0688 67.9001 38.0344 68 40C68.6187 40.2475 69.2375 40.495 69.875 40.75C72.4339 42.2553 73.0882 43.1942 74 46C73.6471 52.0192 71.5783 57.6089 69 63C66.36 62.34 63.72 61.68 61 61C62.65 56.71 64.3 52.42 66 48C64.6593 47.6287 63.3187 47.2575 61.9375 46.875C58.6163 45.914 55.4823 44.805 52.3476 43.3594C44.4772 39.4842 44.4772 39.4842 36 39.75C34.3153 40.4586 32.6506 41.2154 31 42C29.0277 42.8084 27.0459 43.5897 25.0625 44.3701C23.7041 44.9084 22.3497 45.4571 21 46.0166C16.2099 48 16.2099 48 14 48C15.65 52.29 17.3 56.58 19 61C16.36 61.66 13.72 62.32 11 63C7.65863 56.773 4.91178 51.0677 6.99996 44C8.58062 42.007 9.73082 41.1346 12 40C12.0257 38.7586 12.0515 37.5173 12.0781 36.2383C12.1344 34.5963 12.1917 32.9544 12.25 31.3125C12.2712 30.0876 12.2712 30.0876 12.2929 28.8379C12.4542 24.8554 12.7401 22.4547 14.75 18.9375C17.3619 16.6883 18.3682 16.4388 21.75 16.6875C22.9488 16.7552 22.9488 16.7552 24.1718 16.8242C24.7751 16.8822 25.3784 16.9402 26 17C25.9587 15.7625 25.9175 14.525 25.875 13.25C25.875 9.99716 26.0429 7.71812 28 5C31.6438 3.1781 35.9258 3.7724 39.9375 3.75ZM34 11C34 12.98 34 14.96 34 17C37.96 17 41.92 17 46 17C46 15.02 46 13.04 46 11C42.04 11 38.08 11 34 11ZM21 24C21 28.29 21 32.58 21 37C22.32 36.5669 23.64 36.1337 25 35.6875C26.2317 35.2834 26.2317 35.2834 27.4882 34.8711C30.3813 33.8677 33.1828 32.6965 35.9804 31.4531C41.1319 30.2973 46.0419 32.6587 50.75 34.5625C54.7591 36.3467 54.7591 36.3467 59 37C59 32.71 59 28.42 59 24C46.46 24 33.92 24 21 24Z" fill="black"/>
<path d="M75 68C75.625 70.3125 75.625 70.3125 76 73C75.34 73.99 74.68 74.98 74 76C71.2736 75.5189 68.8397 74.9381 66.25 73.9375C59.8587 72.0939 55.0979 72.4071 49.1328 75.3203C41.3034 77.8154 32.8527 76.2385 25.3125 73.6094C20.4442 72.3265 15.7836 73.2866 11.1875 75.125C8.64929 76.1403 7.52162 75.9339 5 75C4.67 73.02 4.34 71.04 4 69C11.647 64.3579 19.2317 64.1427 28 65C30.3906 65.7188 30.3906 65.7188 32.3125 66.5625C38.6546 69.0348 44.4146 67.6671 50.6875 65.4375C59.4462 62.3605 66.5043 65.1383 75 68Z" fill="#DA192A"/>
<path d="M10 67.0001C10 67.6601 10 68.3201 10 69.0001C9.01 69.3301 8.02 69.6601 7 70.0001C7 70.6601 7 71.3201 7 72.0001C9.31 72.3301 11.62 72.6601 14 73.0001C11.0823 74.9452 9.37462 75.4528 6 76.0001C4.61888 73.7253 3.94305 72.4983 4.25 69.8126C5.49501 66.8038 6.85175 67.0001 10 67.0001Z" fill="#DA192A"/>
<path d="M48 67C48 67.66 48 68.32 48 69C43.8794 70.9979 40.5481 71.1784 36 71C36 70.34 36 69.68 36 69C37.6245 68.6643 39.2496 68.3315 40.875 68C41.7799 67.8144 42.6848 67.6287 43.6172 67.4375C46 67 46 67 48 67Z" fill="#DA192A"/>
<path d="M6 72C8.64 72.33 11.28 72.66 14 73C11.0824 74.9451 9.37463 75.4528 6 76C6 74.68 6 73.36 6 72Z" fill="#DA192A"/>
</svg>
