<svg width="61" height="60" viewBox="0 0 61 60" fill="none" xmlns="http://www.w3.org/2000/svg">
<g clip-path="url(#clip0_25_857)">
<path d="M60.1087 9.99951C60.1087 7.34735 59.0551 4.80381 57.1797 2.92844C55.3044 1.05308 52.7608 -0.000488281 50.1087 -0.000488281C47.4565 -0.000488281 44.913 1.05308 43.0376 2.92844C41.1622 4.80381 40.1087 7.34735 40.1087 9.99951C40.1087 14.7745 47.1837 24.4745 48.8587 26.6745V28.7245C48.8554 28.8908 48.8852 29.056 48.9466 29.2105C49.0079 29.3651 49.0994 29.5059 49.2158 29.6246C49.3322 29.7433 49.4712 29.8377 49.6245 29.902C49.7778 29.9664 49.9424 29.9995 50.1087 29.9995C50.4359 29.9996 50.7501 29.8713 50.9838 29.6423C51.2176 29.4132 51.3521 29.1017 51.3587 28.7745V26.6745C53.0087 24.4995 60.1087 14.7995 60.1087 9.99951ZM47.6087 9.99951C47.6087 9.50506 47.7553 9.02171 48.03 8.61059C48.3047 8.19946 48.6952 7.87903 49.152 7.68981C49.6088 7.50059 50.1115 7.45109 50.5964 7.54755C51.0814 7.64401 51.5268 7.88211 51.8764 8.23174C52.2261 8.58138 52.4642 9.02683 52.5606 9.51179C52.6571 9.99674 52.6076 10.4994 52.4184 10.9562C52.2292 11.413 51.9087 11.8035 51.4976 12.0782C51.0865 12.3529 50.6031 12.4995 50.1087 12.4995C49.4456 12.4995 48.8097 12.2361 48.3409 11.7673C47.8721 11.2984 47.6087 10.6626 47.6087 9.99951ZM38.3587 36.0245C36.6188 37.1339 35.2583 38.7473 34.4587 40.6495C34.3738 40.7987 34.3206 40.9638 34.3023 41.1345C34.284 41.3052 34.3011 41.4779 34.3525 41.6417C34.4039 41.8055 34.4884 41.9569 34.6009 42.0866C34.7134 42.2163 34.8514 42.3214 35.0063 42.3954C35.1612 42.4694 35.3297 42.5108 35.5013 42.5168C35.6728 42.5228 35.8438 42.4934 36.0035 42.4305C36.1632 42.3676 36.3083 42.2724 36.4296 42.1509C36.5509 42.0295 36.6459 41.8843 36.7087 41.7245C37.2745 40.271 38.2795 39.0301 39.5837 38.1745C39.8532 38.0026 40.0466 37.734 40.1242 37.4239C40.2017 37.1138 40.1575 36.7857 40.0007 36.5072C39.8438 36.2287 39.5862 36.0208 39.2808 35.9264C38.9754 35.832 38.6454 35.8581 38.3587 35.9995V36.0245ZM26.9837 54.1745C25.6749 55.1912 24.1926 55.962 22.6087 56.4495C22.2772 56.4992 21.979 56.6786 21.7797 56.9482C21.5805 57.2178 21.4964 57.5555 21.5462 57.887C21.5959 58.2185 21.7753 58.5167 22.0449 58.716C22.3145 58.9152 22.6522 58.9992 22.9837 58.9495H23.3587C25.2139 58.3612 26.9494 57.4469 28.4837 56.2495C28.7114 56.0346 28.8502 55.7419 28.8725 55.4296C28.8948 55.1172 28.799 54.8079 28.6042 54.5627C28.4093 54.3176 28.1295 54.1545 27.8202 54.1057C27.5108 54.057 27.1945 54.1262 26.9337 54.2995L26.9837 54.1745ZM34.0337 44.9995C33.8795 44.9393 33.7149 44.9103 33.5494 44.9142C33.3839 44.9181 33.2208 44.9549 33.0696 45.0223C32.9184 45.0898 32.7822 45.1866 32.6687 45.3071C32.5552 45.4277 32.4669 45.5695 32.4087 45.7245C31.7855 47.3654 31.0157 48.9468 30.1087 50.4495C29.9683 50.7296 29.9382 51.0522 30.0243 51.3534C30.1105 51.6546 30.3066 51.9125 30.5738 52.076C30.8411 52.2394 31.16 52.2966 31.4674 52.2362C31.7748 52.1757 32.0482 52.002 32.2337 51.7495C33.2129 50.1598 34.0494 48.4867 34.7337 46.7495C34.8151 46.5906 34.8616 46.416 34.8699 46.2376C34.8782 46.0592 34.8481 45.8811 34.7818 45.7153C34.7155 45.5494 34.6144 45.3998 34.4853 45.2763C34.3563 45.1528 34.2023 45.0584 34.0337 44.9995ZM47.9087 33.2745C47.5087 33.8745 46.6587 34.7245 44.1087 34.9495C43.7772 34.9495 43.4592 35.0812 43.2248 35.3156C42.9904 35.55 42.8587 35.868 42.8587 36.1995C42.8587 36.531 42.9904 36.849 43.2248 37.0834C43.4592 37.3178 43.7772 37.4495 44.1087 37.4495C45.1983 37.4554 46.2747 37.2105 47.2545 36.7336C48.2342 36.2567 49.0911 35.5607 49.7587 34.6995C49.9443 34.4243 50.0131 34.0867 49.9498 33.7609C49.8865 33.435 49.6963 33.1477 49.4212 32.962C49.146 32.7764 48.8084 32.7076 48.4825 32.7709C48.1567 32.8342 47.8693 33.0243 47.6837 33.2995L47.9087 33.2745ZM18.0587 57.4995C22.0087 53.2995 30.1087 43.6245 30.1087 34.9995C30.1287 33.0241 29.7544 31.0646 29.0077 29.2356C28.261 27.4067 27.1569 25.7451 25.76 24.3482C24.3631 22.9513 22.7015 21.8472 20.8726 21.1005C19.0436 20.3537 17.0841 19.9795 15.1087 19.9995C13.1333 19.9795 11.1737 20.3537 9.34478 21.1005C7.51584 21.8472 5.85427 22.9513 4.45737 24.3482C3.06048 25.7451 1.95635 27.4067 1.20963 29.2356C0.46291 31.0646 0.0886192 33.0241 0.108676 34.9995C0.108676 46.0995 13.4837 58.9245 14.2337 59.6245H14.4087L14.6337 59.7495C14.772 59.8663 14.9341 59.9516 15.1087 59.9995H17.6087C17.773 59.9869 17.9332 59.9419 18.0801 59.8671C18.227 59.7923 18.3577 59.6892 18.4645 59.5638C18.5714 59.4383 18.6524 59.2929 18.7029 59.136C18.7534 58.9791 18.7723 58.8138 18.7587 58.6495C18.767 58.4104 18.7052 58.1741 18.5808 57.9697C18.4564 57.7654 18.2749 57.6019 18.0587 57.4995ZM7.60868 34.9995C7.60868 33.5162 8.04854 32.0661 8.87265 30.8327C9.69676 29.5994 10.8681 28.6381 12.2385 28.0704C13.609 27.5028 15.117 27.3542 16.5719 27.6436C18.0267 27.933 19.3631 28.6473 20.412 29.6962C21.4609 30.7451 22.1752 32.0815 22.4646 33.5363C22.754 34.9912 22.6054 36.4992 22.0378 37.8696C21.4701 39.2401 20.5088 40.4114 19.2755 41.2355C18.0421 42.0596 16.592 42.4995 15.1087 42.4995C13.1196 42.4995 11.2119 41.7093 9.80537 40.3028C8.39885 38.8963 7.60868 36.9886 7.60868 34.9995Z" fill="#DA192A"/>
</g>
<defs>
<clipPath id="clip0_25_857">
<rect width="60" height="60" fill="white" transform="translate(0.108887 -0.000488281)"/>
</clipPath>
</defs>
</svg>
