<svg width="61" height="60" viewBox="0 0 61 60" fill="none" xmlns="http://www.w3.org/2000/svg">
<path d="M46.9846 22.4995H41.3596V16.8745C41.3596 15.3827 40.767 13.9519 39.7121 12.897C38.6572 11.8421 37.2265 11.2495 35.7346 11.2495H9.48462C7.99278 11.2495 6.56204 11.8421 5.50714 12.897C4.45225 13.9519 3.85962 15.3827 3.85962 16.8745V43.1245C3.85962 43.6218 4.05716 44.0987 4.40879 44.4503C4.76042 44.802 5.23734 44.9995 5.73462 44.9995H11.6971C12.0913 46.0854 12.8102 47.0236 13.7562 47.6867C14.7022 48.3497 15.8294 48.7054 16.9846 48.7054C18.1398 48.7054 19.2671 48.3497 20.2131 47.6867C21.1591 47.0236 21.878 46.0854 22.2721 44.9995H41.6971C42.0913 46.0854 42.8102 47.0236 43.7562 47.6867C44.7022 48.3497 45.8294 48.7054 46.9846 48.7054C48.1398 48.7054 49.2671 48.3497 50.2131 47.6867C51.1591 47.0236 51.878 46.0854 52.2721 44.9995H54.4846C54.9819 44.9995 55.4588 44.802 55.8104 44.4503C56.1621 44.0987 56.3596 43.6218 56.3596 43.1245V31.8745C56.3596 29.3881 55.3719 27.0035 53.6137 25.2454C51.8556 23.4872 49.471 22.4995 46.9846 22.4995ZM16.9846 44.9995C16.6138 44.9995 16.2513 44.8895 15.9429 44.6835C15.6346 44.4775 15.3943 44.1847 15.2523 43.842C15.1104 43.4994 15.0733 43.1224 15.1456 42.7587C15.218 42.395 15.3966 42.0609 15.6588 41.7987C15.921 41.5365 16.2551 41.3579 16.6188 41.2855C16.9825 41.2132 17.3595 41.2503 17.7022 41.3922C18.0448 41.5342 18.3376 41.7745 18.5436 42.0828C18.7497 42.3912 18.8596 42.7537 18.8596 43.1245C18.8596 43.6218 18.6621 44.0987 18.3104 44.4503C17.9588 44.802 17.4819 44.9995 16.9846 44.9995ZM37.6096 41.2495H22.2721C21.878 40.1636 21.1591 39.2254 20.2131 38.5623C19.2671 37.8993 18.1398 37.5436 16.9846 37.5436C15.8294 37.5436 14.7022 37.8993 13.7562 38.5623C12.8102 39.2254 12.0913 40.1636 11.6971 41.2495H7.60962V35.6245H37.6096V41.2495ZM37.6096 31.8745H7.60962V16.8745C7.60962 16.3772 7.80716 15.9003 8.15879 15.5487C8.51042 15.1971 8.98734 14.9995 9.48462 14.9995H35.7346C36.2319 14.9995 36.7088 15.1971 37.0604 15.5487C37.4121 15.9003 37.6096 16.3772 37.6096 16.8745V31.8745ZM46.9846 44.9995C46.6138 44.9995 46.2513 44.8895 45.9429 44.6835C45.6346 44.4775 45.3943 44.1847 45.2523 43.842C45.1104 43.4994 45.0733 43.1224 45.1456 42.7587C45.218 42.395 45.3966 42.0609 45.6588 41.7987C45.921 41.5365 46.2551 41.3579 46.6188 41.2855C46.9825 41.2132 47.3595 41.2503 47.7021 41.3922C48.0448 41.5342 48.3376 41.7745 48.5436 42.0828C48.7497 42.3912 48.8596 42.7537 48.8596 43.1245C48.8596 43.6218 48.6621 44.0987 48.3104 44.4503C47.9588 44.802 47.4819 44.9995 46.9846 44.9995ZM52.6096 41.2495H52.2721C51.878 40.1636 51.1591 39.2254 50.2131 38.5623C49.2671 37.8993 48.1398 37.5436 46.9846 37.5436C45.8294 37.5436 44.7022 37.8993 43.7562 38.5623C42.8102 39.2254 42.0913 40.1636 41.6971 41.2495H41.3596V26.2495H43.2346V33.7495C43.2346 34.2468 43.4322 34.7237 43.7838 35.0753C44.1354 35.427 44.6123 35.6245 45.1096 35.6245H52.6096V41.2495ZM46.9846 31.8745V26.2495C48.4765 26.2495 49.9072 26.8421 50.9621 27.897C52.017 28.9519 52.6096 30.3827 52.6096 31.8745H46.9846Z" fill="#DA192A"/>
</svg>
