<svg xmlns="http://www.w3.org/2000/svg" viewBox="0 0 500 500"><defs><style>.cls-1{fill:#fff;}.cls-2{fill:#f5f5f5;}.cls-3{fill:#b3b3b3;}.cls-13,.cls-22,.cls-4,.cls-9{fill:none;stroke-linecap:round;stroke-linejoin:round;}.cls-13,.cls-4,.cls-9{stroke:#262626;}.cls-4{stroke-width:0.27px;}.cls-5{fill:#d6d6d6;}.cls-6{fill:#9b9b9b;}.cls-7{fill:#f7a99c;}.cls-8{fill:#262626;}.cls-22,.cls-9{stroke-width:0.5px;}.cls-10{fill:red;}.cls-11{fill:#ffc001;}.cls-12{fill:#ff7769;}.cls-13{stroke-width:0.71px;}.cls-14{fill:#1a1a1a;}.cls-15{fill:#c69c6d;}.cls-16{fill:#5d1113;}.cls-17{fill:#e5a300;}.cls-17,.cls-20,.cls-21,.cls-25{opacity:0.5;}.cls-18{fill:#666;}.cls-19{fill:gray;}.cls-20{fill:#ed5f20;}.cls-21{fill:#fc7777;}.cls-22{stroke:#fff;}.cls-23{opacity:0.65;}.cls-24{fill:#333;}.cls-25{fill:#cdebf5;}.cls-26{fill:#ff5757;}.cls-27{fill:#ffaeae;}.cls-28{fill:#ffa1a1;}</style></defs><g id="BACKGROUND"><rect class="cls-1" width="500" height="500"/></g><g id="OBJECT"><path class="cls-2" d="M119.08,239.89l13.25-7.66a59.43,59.43,0,0,0-6.11-14.69l-14.76,4L100.4,210.43l3.94-14.71a59.57,59.57,0,0,0-14.72-6.08L82,202.82H66.36L58.79,189.7a60.13,60.13,0,0,0-14.72,6.15L48,210.43,36.91,221.5l-14.53-3.9a60,60,0,0,0-6.11,14.77l13,7.52v15.64l-13,7.52a59.41,59.41,0,0,0,6.12,14.76l14.52-3.89L48,285l-3.9,14.57A59.65,59.65,0,0,0,58.8,305.7l7.56-13.1H82l7.6,13.16a59.41,59.41,0,0,0,14.73-6.08L100.4,285l11.06-11.06,14.75,3.95a59.46,59.46,0,0,0,6.12-14.69l-13.25-7.65ZM74.3,280.16a32.46,32.46,0,1,1,32.46-32.46A32.45,32.45,0,0,1,74.3,280.16Z"/><ellipse class="cls-2" cx="275.62" cy="421.78" rx="208.11" ry="26.45"/><path class="cls-3" d="M118.73,247.7V232.79c0-6.85,6.56-12.4,14.64-12.4H285.1l10.59-18.53a8.07,8.07,0,0,1,7.07-3.75h35.61c4.33,0,7.85,3,7.85,6.65V397.7A20.62,20.62,0,0,1,340.68,410c-6.38,6.65-15,6.26-16.26,6.18H118.73Z"/><path class="cls-2" d="M288.81,239.31l-22-23.27-2.85,13.1-23.31-23.8-5,12.23-17.31-21.35-14.86,8.2-12.91-22.3-14.12,11.25L158,172.66a305.88,305.88,0,0,1,44.49-70.28l138.12,56.46a684.57,684.57,0,0,0-40.2,81.24Z"/><path class="cls-2" d="M191.61,186.93l12.92,22.29L219.39,201l17.31,21.34,5-12.22L265,234l2.85-13.11,22,23.28,11.55.76c-.17.42-.35.83-.52,1.24a683.28,683.28,0,0,0-30.46,91.68L132.33,281.34a305.91,305.91,0,0,1,22.75-94.83q1.93-4.63,3.95-9l18.47,20.71Z"/><path class="cls-4" d="M202.44,102.38"/><polyline class="cls-4" points="300.36 240.07 288.81 239.31 266.78 216.03 263.93 229.14 240.62 205.34 235.62 217.57 218.31 196.22"/><polyline class="cls-4" points="301.44 244.88 289.89 244.12 267.86 220.84 265.01 233.95 241.7 210.15 236.7 222.38 219.39 201.03"/><path class="cls-2" d="M64.21,128.72a6.73,6.73,0,0,0-5.2,8,718.44,718.44,0,0,1,23.31,83.68,717.89,717.89,0,0,1,13.5,91.12,6.85,6.85,0,0,0,2.91,4.25,6.7,6.7,0,0,0,5.07.95l127.3-26.81a6.72,6.72,0,0,0,5.2-8,520.77,520.77,0,0,0-12.92-86.72,522.42,522.42,0,0,0-17.82-59.29q-22.09-13.82-44.17-27.65Z"/><path class="cls-5" d="M173.15,142.73l32.41-6.83-44.17-27.65,6.55,31.08A4.4,4.4,0,0,0,173.15,142.73Z"/><path class="cls-4" d="M161.39,108.25l6.55,31.08a4.4,4.4,0,0,0,5.21,3.4l32.41-6.83"/><path class="cls-5" d="M148.26,229.68a46.74,46.74,0,0,1-1.25-11,18.29,18.29,0,0,1,2.39-8.3,19.16,19.16,0,0,1,3.11-4.32,38.5,38.5,0,0,0,3.31-4,17.43,17.43,0,0,0,2.28-4.33,10.26,10.26,0,0,0,.12-5.58c-.77-3.7-2.34-6.07-4.69-7.11a12.31,12.31,0,0,0-7.71-.68q-6,1.26-7.56,5.08a19.84,19.84,0,0,0-.94,9.59l-14.6,3.08a27.52,27.52,0,0,1-.31-10.46,21.88,21.88,0,0,1,3.53-8.78,23.25,23.25,0,0,1,7-6.56,30.73,30.73,0,0,1,10-3.88q12.24-2.58,20.36.91t10.49,14.7a25.26,25.26,0,0,1,.59,6.5,17.12,17.12,0,0,1-1.17,5.39,22.41,22.41,0,0,1-2.75,4.9c-1.16,1.58-2.51,3.24-4,5a35,35,0,0,0-3.27,4.42,12.73,12.73,0,0,0-1.6,3.94,13.8,13.8,0,0,0-.22,4,41.35,41.35,0,0,0,.72,4.52Zm4.15,21.94-3.13-14.83,15.29-3.22,3.12,14.83Z"/><path class="cls-4" d="M64.21,128.72a6.73,6.73,0,0,0-5.2,8,718.44,718.44,0,0,1,23.31,83.68,717.89,717.89,0,0,1,13.5,91.12,6.85,6.85,0,0,0,2.91,4.25,6.7,6.7,0,0,0,5.07.95l127.3-26.81a6.72,6.72,0,0,0,5.2-8,520.77,520.77,0,0,0-12.92-86.72,522.42,522.42,0,0,0-17.82-59.29q-22.09-13.82-44.17-27.65Z"/><path class="cls-6" d="M77,247.7H300.47a13.11,13.11,0,0,1,12.4,10.56L338.6,405.59c1,5.84-2.89,10.57-8.72,10.57H106.45A13.13,13.13,0,0,1,94,405.59L68.32,258.26C67.3,252.43,71.21,247.7,77,247.7Z"/><polygon class="cls-7" points="347.79 145.14 357.26 142.11 372.42 146.47 372.03 148.65 361.82 148.65 355.82 154.63 350.6 155.67 347.79 145.14"/><path class="cls-8" d="M356.16,144.25c2.6-1.43,9.17-4.59,17-3.05,2.4.47,6.79,1.33,9.56,5a12.85,12.85,0,0,1,2.21,5.66c.93,4.81-.66,6.73-.68,14.75,0,3,.2,4.16.91,5.27,1.37,2.15,3.1,1.79,6,3.82a17.87,17.87,0,0,1,6.27,8.26c1.22,3.59-.05,4.61,1.37,6.57,2.21,3,6,1.73,7.95,4.28,2.23,3-.29,8.34-.61,9-6.1,13-44.6,19.27-61.22,2.45-.58-.59-10.12-10.44-7.34-17.28,1.6-3.93,6.73-5.49,6.73-10.09,0-2-1-2.1-1.45-5.5-.35-2.43-.82-5.7.84-8.33,1.93-3.06,5.11-2.66,5.67-5.12.43-1.93-1.35-3-1.69-5C347.33,152.75,348.65,149.36,356.16,144.25Z"/><path class="cls-9" d="M382,145.9a16.2,16.2,0,0,1,5.16,9.36c.75,5.81-3,8.48-1.38,12.58,1.5,3.76,5.07,2.5,9.79,7.83,1.47,1.66,4.68,5.29,5.35,10.47.55,4.33-1,6.92.76,8.56,0,0,.57.52,5.78,1.49h0"/><path class="cls-9" d="M347.29,162.21c-2.54,1.13-5.8,3.1-6.79,6.43-1.2,4,2.06,5.91,1.37,10.47-.9,6-7.71,6.45-7.57,12.07.08,2.91,1.05,5.37,4.28,9.63a20,20,0,0,0,6.35,5.51,19.33,19.33,0,0,0,2.83,1.22"/><path class="cls-10" d="M347.29,143.26c-24.17.11-41.86,10.34-43.33,21.37s13.38,23.24,19.57,28.31a74.69,74.69,0,0,0,17.35,10.62l18.67-19.87L330.1,168.05l21.26-9.51Z"/><path class="cls-11" d="M372.94,183.69H359.55A41.32,41.32,0,0,0,346.26,196c-4.95,7.31-6.25,14.65-7.16,24.48a260.56,260.56,0,0,0,.23,45.6l67.29-.54V230.68a146.37,146.37,0,0,0-2.35-21.31c-1.58-8.52-2.88-11.18-4.28-13.25-4-5.9-9.66-8.44-12.23-9.59A33.5,33.5,0,0,0,372.94,183.69Z"/><path class="cls-7" d="M366.25,189.11h0a6.8,6.8,0,0,0,6.83-6.78l.06-14.67-13.63,0-.05,14.66A6.8,6.8,0,0,0,366.25,189.11Z"/><path class="cls-12" d="M359.47,178.17l8.88-4.56a10.41,10.41,0,0,1-3.76,6.85,10.1,10.1,0,0,1-5.13,2.06Z"/><path class="cls-7" d="M373.47,163.12c0-.22.63-.56.81-.67a4.31,4.31,0,0,1,1-.46,4.08,4.08,0,0,1,2.08-.11,3.7,3.7,0,0,1,2.79,2.86,4.13,4.13,0,0,1-.41,2.39,6.07,6.07,0,0,1-2.48,2.68,6.68,6.68,0,0,1-2.92.86,15.66,15.66,0,0,1-2.28-.11Z"/><path class="cls-7" d="M375.34,163.26A17.44,17.44,0,0,1,369,174.2c-1,.75-7.33,5.75-13.16,3.31-7.49-3.13-6.67-15.43-6.62-16.1.18-2.25.7-8.88,6.2-12.42a13.2,13.2,0,0,1,18.21,4.21A14.31,14.31,0,0,1,375.34,163.26Z"/><path class="cls-8" d="M353.49,161.42a1.47,1.47,0,1,1-1.22-1.92A1.62,1.62,0,0,1,353.49,161.42Z"/><path class="cls-8" d="M362.14,162.51a1.47,1.47,0,1,1-1.21-1.92A1.62,1.62,0,0,1,362.14,162.51Z"/><path class="cls-13" d="M356.1,162.86l-1.32,1.79a.69.69,0,0,0,.19,1l1.22.74"/><path class="cls-12" d="M365.05,167a2,2,0,1,1-1.71-2.19A2,2,0,0,1,365.05,167Z"/><path class="cls-13" d="M374.39,168.05a3.63,3.63,0,0,1,1.14-2.74,3.55,3.55,0,0,1,2.29-.88"/><path class="cls-13" d="M375.42,165.6a1.64,1.64,0,0,1,1.4.48,1.6,1.6,0,0,1,.4,1.19"/><path class="cls-12" d="M350.26,163.92a2,2,0,0,0-1.05.17,28.89,28.89,0,0,0,.37,3.69.72.72,0,0,0,.19,0,2,2,0,1,0,.49-3.9Z"/><path class="cls-8" d="M347.89,153.19a3.91,3.91,0,0,0,0,2.55,3,3,0,0,0,1.83,1.74,2.65,2.65,0,0,0,3-.86,1.78,1.78,0,0,0,1.2.83c.89.2,1.88-.82,1.89-.83a4.89,4.89,0,0,0,.9.67,1.29,1.29,0,0,0,.82-.08c.14-.06,1.18-.49,1.18-.68,0,.68,1.39.35,1.66.16s.81-.58.81-.82c0,0,0,1.26.77,1.41s2-1.09,2-1.09.52,1.2,1,1.23,1.63-1,1.63-1a4.18,4.18,0,0,0,.69.69c.57.52,1.69-.69,1.69-.69l4.41,7.69a2,2,0,0,1,.6-1.54,5,5,0,0,1,1.55-.67c.23-.24.27-1.08.32-1.4a9.62,9.62,0,0,0-.25-4.35,12.69,12.69,0,0,0-2.86-4.67,19.28,19.28,0,0,0-9.79-6,15.62,15.62,0,0,0-4-.39,11.59,11.59,0,0,0-5.43,1.73A11.86,11.86,0,0,0,347.89,153.19Z"/><path class="cls-1" d="M356.05,170.68l4.39-1.05a2.26,2.26,0,1,0-4.39,1.05Z"/><path class="cls-7" d="M388.83,220.28c-10.38,16.29-21.54,23.94-29.72,27.9-17,8.23-48.26,13.61-52,15.69a8.07,8.07,0,0,1-3.61,1,3.14,3.14,0,0,1-2.15-.38,1.4,1.4,0,0,1-.66-.8,2.57,2.57,0,0,1,.47-1.64,2.25,2.25,0,0,1-1.38.45,2,2,0,0,1-1.43-.58,2.21,2.21,0,0,1-.11-2.58,2.22,2.22,0,0,1-3,.26,1.8,1.8,0,0,1-.35-1.92,1.76,1.76,0,0,1,.77-.81,3.27,3.27,0,0,1-2.33-.18,1.84,1.84,0,0,1-.93-.88,2,2,0,0,1,.23-1.65c.46-.76,1.23-1,2.55-1.46,2.72-.87,5.66-1.72,5.66-1.72l-5.31-2.15a2.33,2.33,0,0,1-.73-2.36,2.51,2.51,0,0,1,3.52-.93l10.32,2.51a20.29,20.29,0,0,0,6.23.24c2.84-.46,23.9-12.51,28.06-15.7s22.15-20.07,22.15-20.07Z"/><path class="cls-14" d="M343.92,266.09s-17.44,58-18.46,66.34,6.83,73.81,6.83,73.81h24l12.64-64.84s1.64,11.62,9.38,19.78,36.1,36.3,36.1,36.3l17.94-17.54L410.7,340.38c-1.23-8.4-1.87-15.52-2.24-20.86-.57-8.44-.86-12.67-.43-17.66.87-10.15,3.14-11.89,3-18.8a35.49,35.49,0,0,0-5.48-17.51Z"/><path class="cls-15" d="M354.48,406.24v24.34h-39l1-7s12.23-6.87,14.14-8.43a20.56,20.56,0,0,0,4.35-5.58,8.69,8.69,0,0,0,0-3.33Z"/><path class="cls-10" d="M356.46,415.42a3.71,3.71,0,0,0-2,0c-2,.56-2.51,2.87-3.38,4.11l-22.38.25c0-1.13.1-2.27.14-3.4l-3.49-1.13a23.75,23.75,0,0,1-6.61,5.25c-2.75,1.47-6.32,2.63-7.78,5.11a5.68,5.68,0,0,0-.74,2.66,2.62,2.62,0,0,0,.61,2.1,2.08,2.08,0,0,0,1.36.51l43.33-.27a.92.92,0,0,0,.92-.92Z"/><path class="cls-16" d="M312.16,429.73h42.58a1.72,1.72,0,0,1,1.72,1.72v1.91a0,0,0,0,1,0,0h-46a0,0,0,0,1,0,0v-1.91A1.72,1.72,0,0,1,312.16,429.73Z" transform="translate(666.89 863.1) rotate(180)"/><path class="cls-17" d="M348.94,251.38l.25,9.78q4.31-2.13,8.69-4.4t8.53-4.47v-7.91Z"/><path class="cls-15" d="M431.91,380.33l17,17.42L421,425l-4.16-5.73s4-13.45,4.24-15.9a20.56,20.56,0,0,0-.78-7c-.37-1-2.32-2.38-2.32-2.38Z"/><path class="cls-10" d="M439.73,385.52a3.65,3.65,0,0,0-1.43,1.35c-1,1.8.2,3.82.45,5.31L422.9,408l-2.28-2.53-3.29,1.63a23.91,23.91,0,0,1-1.06,8.37c-.95,3-2.7,6.3-2,9.09a5.61,5.61,0,0,0,1.31,2.42,2.66,2.66,0,0,0,1.91,1.08,2.09,2.09,0,0,0,1.33-.58L449.65,397a.91.91,0,0,0,0-1.3Z"/><path class="cls-16" d="M413.23,411.32H455.8a1.72,1.72,0,0,1,1.72,1.72v1.91a0,0,0,0,1,0,0h-46a0,0,0,0,1,0,0V413a1.72,1.72,0,0,1,1.72-1.72Z" transform="translate(1034.04 405.63) rotate(135.73)"/><path class="cls-9" d="M295,248.13c.4.27.91.6,1.52.94a20.34,20.34,0,0,0,2.76,1.3,20.76,20.76,0,0,0,3.61,1"/><path class="cls-9" d="M293.84,256.91a3,3,0,0,0,1.82,0,11.81,11.81,0,0,0,2.72-1.06"/><path class="cls-9" d="M296.72,260.08a11.43,11.43,0,0,0,1.78-.7,19.71,19.71,0,0,0,2.43-1.37"/><path class="cls-9" d="M300.33,262.46a16,16,0,0,0,1.68-.79,9.52,9.52,0,0,0,1.29-1"/><path class="cls-14" d="M364.67,299.61s-12.54,47.84-13.3,60.23-4.13,46.4-4.13,46.4h9l12.64-64.84Z"/><path class="cls-9" d="M374.36,356.05a51,51,0,0,1-5.47-14.65c-.26-1.31-.38-2.14-1.13-9.84-1-10.32-1.77-18.78-1.81-19.26-.29-3.18-.73-8-1.28-14,0,0-.77-11.85-1.15-18"/><path class="cls-9" d="M390.35,265.55s3,57.52,4.35,64.4,4.88,22,10.81,29.81,19.37,27.43,19.37,27.43"/><path class="cls-9" d="M364.43,300.5S353,347.37,352.17,353.6s-4.93,52.64-4.93,52.64"/><polygon class="cls-18" points="431.91 380.33 417.95 393.94 419.6 395.39 434.11 382.58 431.91 380.33"/><polygon class="cls-19" points="354.49 406.24 334.98 406.24 335.15 408.68 354.49 408.68 354.49 406.24"/><path class="cls-10" d="M359.55,183.69s-7.57,27.9-8.95,38.14-1.41,48.46-1.41,48.46H336.06c-.51-5.77-3.12-37.14,2.7-59.92,2.86-11.19,6.87-16.86,11.06-20.64A32.81,32.81,0,0,1,359.55,183.69Z"/><path class="cls-20" d="M335.49,262.46a31,31,0,0,0,7.83,0,30.14,30.14,0,0,0,5.87-1.34q.06-3.69.13-7.38L335,259.34Z"/><path class="cls-10" d="M416.47,273.81c-4.24-32.06-9-56.33-12.15-67.95-1.25-4.56-3.4-11.29-9.35-16a29.34,29.34,0,0,0-9.23-4.7,33.27,33.27,0,0,0-12.8-1.46s-5.65,14.31-5.75,19.81a106.71,106.71,0,0,1-53.29,41.38l3.82,20.67s32-11,48.78-19.15c-.21,13.37-.39,24.66-.39,24.66Z"/><path class="cls-21" d="M366.41,252.29l.09-5.89a66.77,66.77,0,0,0,22.11-17.73,101.25,101.25,0,0,0,10.05-16.12c2.07-4,3.59-7.49,4.64-10.06q1.49,5.65,3,11.31a70.93,70.93,0,0,1-39.87,38.49Z"/><path class="cls-9" d="M403,203.56s-6.44,14.27-12.29,22.66c-4.11,5.89-11.23,13.6-24.23,20.18q-10.61,4.78-22.28,9.44c-9.12,3.62-18,6.84-26.5,9.71"/><path class="cls-9" d="M384,184.64a11.67,11.67,0,0,0-5.58,1.73c-2.46,1.57-3.49,3.69-5.05,6.57C372,195.41,370,199,367.19,203.5c-2.69,3.66-13.95,18.7-27.79,28.32a108.31,108.31,0,0,1-10.73,6.56c-6.69,3.45-14.77,6.5-14.77,6.5h0"/><path class="cls-9" d="M342.74,199.23a40.7,40.7,0,0,0-3.2,8.31c-1.24,4.73-2.25,9.68-2.25,9.68"/><line class="cls-9" x1="359.55" y1="183.69" x2="326.13" y2="165.87"/><path class="cls-22" d="M324.44,152.43c-2.32.28-8.3,1.34-12.68,6.27a12.7,12.7,0,0,0-3.67,7.17c-.69,6.53,5.25,11.17,5.81,11.6"/><line class="cls-22" x1="404.55" y1="226.04" x2="409.36" y2="262.73"/><g class="cls-23"><path class="cls-10" d="M196,349.21a48.79,48.79,0,0,1-.91-11.45,15.87,15.87,0,0,1,2.83-8,15.33,15.33,0,0,1,3.45-3.73,31.51,31.51,0,0,0,3.64-3.32,13.78,13.78,0,0,0,2.57-3.92,10,10,0,0,0,.34-5.66q-1-5.91-4.7-8.26a14.75,14.75,0,0,0-8.13-2.35q-6.39,0-8.18,3.55t-1.34,9.59H170A27.35,27.35,0,0,1,170,305a18.28,18.28,0,0,1,4.06-8.2,19.13,19.13,0,0,1,7.65-5.18,29.56,29.56,0,0,1,10.72-1.81q13,0,21.48,5.3t10.54,17.24a25.77,25.77,0,0,1,.4,6.75,15.42,15.42,0,0,1-1.43,5.25,18.48,18.48,0,0,1-3.09,4.4c-1.29,1.37-2.78,2.77-4.45,4.22a27.46,27.46,0,0,0-3.62,3.8,10.54,10.54,0,0,0-1.83,3.67,12.89,12.89,0,0,0-.38,4,43.63,43.63,0,0,0,.59,4.76Zm3.59,23.27-2.76-15.79h16.27l2.76,15.79Z"/></g><path class="cls-24" d="M40.07,433.46h0a5.77,5.77,0,0,1,4.09-7l79.49-21.14,3,11.14L47.12,437.55A5.78,5.78,0,0,1,40.07,433.46Z"/><circle class="cls-25" cx="161.77" cy="395.71" r="39.46" transform="translate(-260.79 460.52) rotate(-76.49)"/><path class="cls-19" d="M161.77,351.62a44.09,44.09,0,1,0,44.08,44.09A44.09,44.09,0,0,0,161.77,351.62Zm0,81a36.93,36.93,0,1,1,36.93-36.93A36.93,36.93,0,0,1,161.77,432.64Z"/><path class="cls-1" d="M169.56,421.75a2.46,2.46,0,0,1,1.49-4.28,17.2,17.2,0,0,0,7-2,16.54,16.54,0,0,0,4.67-3.71,13.53,13.53,0,0,0,3.27-6.09,13.15,13.15,0,0,0-1.82-9.28,2.46,2.46,0,0,1,4.19-2.57,17.8,17.8,0,0,1,2.44,12.87,18.34,18.34,0,0,1-4.36,8.29,21.19,21.19,0,0,1-6.07,4.82,22.09,22.09,0,0,1-9.06,2.56A2.43,2.43,0,0,1,169.56,421.75Z"/><path class="cls-26" d="M92.68,411.28,38.83,426a8.21,8.21,0,0,0,4.22,15.87L97.6,427.35Z"/><line class="cls-9" x1="92.65" y1="424.38" x2="44.65" y2="436.91"/><path class="cls-9" d="M178.29,358.17c-3.88-1.74-14.24-5.75-26.55-2.66a38.38,38.38,0,0,0-11.84,5.25"/><path class="cls-27" d="M407.4,138.27a37.37,37.37,0,0,1,1.91-8.57,14.59,14.59,0,0,1,4-5.63,15.37,15.37,0,0,1,3.46-2.44,30.77,30.77,0,0,0,3.51-2.11,13.57,13.57,0,0,0,2.84-2.66,8.16,8.16,0,0,0,1.54-4.17q.57-4.47-1.68-6.57a9.78,9.78,0,0,0-5.62-2.51c-3.23-.41-5.56.21-7,1.86a15.8,15.8,0,0,0-3.19,7L395.34,111a21.77,21.77,0,0,1,2.48-7.94,17.35,17.35,0,0,1,4.93-5.69,18.56,18.56,0,0,1,7-3.12,24.83,24.83,0,0,1,8.53-.32q9.87,1.24,15.07,6t4.07,13.78a20,20,0,0,1-1.23,5,13.64,13.64,0,0,1-2.28,3.75,17.48,17.48,0,0,1-3.35,3c-1.28.9-2.73,1.8-4.33,2.71a27.31,27.31,0,0,0-3.6,2.47,9.93,9.93,0,0,0-2.22,2.55,10.79,10.79,0,0,0-1.21,3,29.55,29.55,0,0,0-.63,3.58Zm-2.58,17.59,1.5-12,12.34,1.55-1.51,12Z"/><path class="cls-28" d="M363.38,114.86a26.13,26.13,0,0,1-.54-6.26,10.3,10.3,0,0,1,1.49-4.68,10.58,10.58,0,0,1,1.83-2.41,19.72,19.72,0,0,0,1.94-2.2,9.67,9.67,0,0,0,1.37-2.42,5.88,5.88,0,0,0,.15-3.17c-.38-2.11-1.23-3.49-2.55-4.12a7,7,0,0,0-4.37-.5c-2.29.41-3.75,1.34-4.38,2.77a11.22,11.22,0,0,0-.68,5.44l-8.35,1.52a15.67,15.67,0,0,1,0-6,12.44,12.44,0,0,1,2.15-4.94,13.13,13.13,0,0,1,4.08-3.62,17.67,17.67,0,0,1,5.75-2q7-1.27,11.56.84t5.73,8.52a14.3,14.3,0,0,1,.24,3.7,9.49,9.49,0,0,1-.75,3,12.35,12.35,0,0,1-1.64,2.74c-.69.89-1.48,1.81-2.37,2.78a19,19,0,0,0-1.93,2.46,7,7,0,0,0-1,2.21,7.6,7.6,0,0,0-.19,2.28,23.39,23.39,0,0,0,.33,2.58Zm2,12.54-1.55-8.48,8.74-1.59,1.54,8.48Z"/></g></svg>