<svg width="61" height="60" viewBox="0 0 61 60" fill="none" xmlns="http://www.w3.org/2000/svg">
<g clip-path="url(#clip0_25_847)">
<path d="M57.1337 38.8075L47.6297 20.3335V-0.000488281H18.0797V4.16351L14.9237 5.75351L7.74769 9.35951L10.1177 14.0695L3.08569 26.2555L18.0797 34.9135V40.6495H31.6097C31.6037 41.2675 31.5797 41.8735 31.5377 42.4615C31.4079 44.8769 31.852 47.2888 32.8337 49.4995C33.3919 50.8018 34.0772 52.0458 34.8797 53.2135C36.0165 54.8557 37.0466 56.5692 37.9637 58.3435L38.8037 59.9995H54.1937L52.4717 51.4915L57.1337 38.8075ZM18.0797 31.4515L7.18369 25.1575L11.7317 17.2795L18.0797 29.8975V31.4515ZM18.0797 23.2135L13.5257 14.1655L11.9177 10.9615L11.7797 10.6915L12.1877 10.4875L17.0717 8.03351L18.0797 7.52351V23.2135ZM31.0817 31.7575L31.2017 32.9095L31.2737 33.6115C31.3517 34.4095 31.4237 35.1775 31.4777 35.9095C31.5197 36.5095 31.5497 37.0915 31.5737 37.6495H21.0797V2.99951H44.6297V37.2115C44.6301 37.4047 44.5923 37.596 44.5186 37.7745C44.4449 37.9531 44.3366 38.1153 44.2 38.2518C44.0634 38.3884 43.9012 38.4967 43.7227 38.5704C43.5442 38.6442 43.3528 38.6819 43.1597 38.6815C42.8463 38.6842 42.5405 38.5851 42.2884 38.3989C42.0363 38.2128 41.8514 37.9498 41.7617 37.6495C41.7347 37.5905 41.7165 37.5278 41.7077 37.4635L41.4377 35.9095L40.9217 32.9095L40.4957 30.4675C40.2865 29.2529 39.6137 28.1671 38.6193 27.439C37.6249 26.7109 36.3866 26.3974 35.1655 26.5647C33.9445 26.7321 32.8361 27.3671 32.0742 28.3358C31.3123 29.3046 30.9565 30.5314 31.0817 31.7575ZM40.6337 56.9815C39.6624 55.0886 38.5659 53.2626 37.3517 51.5155C36.6645 50.5136 36.0777 49.4465 35.5997 48.3295C34.9038 46.758 34.5324 45.0621 34.5077 43.3435C34.5077 43.1155 34.5137 42.8875 34.5317 42.6595C34.5737 42.0055 34.6037 41.3395 34.6157 40.6495C34.6337 39.6895 34.6217 38.6935 34.5797 37.6495C34.5557 37.0855 34.5257 36.5095 34.4837 35.9095C34.4237 35.0755 34.3457 34.2115 34.2557 33.3055L34.2137 32.9095L34.0697 31.4575C34.0218 31.0045 34.152 30.5505 34.4328 30.1918C34.7136 29.833 35.123 29.5976 35.5743 29.5352C36.0255 29.4729 36.4834 29.5885 36.8509 29.8577C37.2185 30.1269 37.4669 30.5284 37.5437 30.9775L37.8797 32.9095L38.3957 35.9095L38.7017 37.6495L38.7557 37.9735C38.8892 38.7461 39.2235 39.4699 39.7252 40.0723C40.2268 40.6748 40.8781 41.1347 41.6137 41.4058C42.3493 41.677 43.1433 41.7498 43.916 41.6171C44.6886 41.4843 45.4128 41.1506 46.0157 40.6495C46.5205 40.2299 46.9267 39.7045 47.2057 39.1103C47.4846 38.5161 47.6294 37.8679 47.6297 37.2115V26.8915L53.8637 39.0115L49.3637 51.2575L50.5277 56.9995L40.6337 56.9815Z" fill="#DA192A"/>
<path d="M31.3691 15.3638V20.9138H30.0173L30.0113 15.3746L27.0113 15.3782L27.0143 18.1466H25.0691V21.1466H27.0179L27.0209 23.9138H34.3691V18.3638H35.6933V23.9174H38.6933V21.1466H40.6403V18.1466H38.6933V15.3638H31.3691Z" fill="#DA192A"/>
</g>
<defs>
<clipPath id="clip0_25_847">
<rect width="60" height="60" fill="white" transform="translate(0.109619 -0.000488281)"/>
</clipPath>
</defs>
</svg>
