<svg width="24" height="24" viewBox="0 0 42 42" fill="none" xmlns="http://www.w3.org/2000/svg">
<path d="M35.2193 11.8125H32.8125V6.5625C32.8125 6.2144 32.6742 5.88056 32.4281 5.63442C32.1819 5.38828 31.8481 5.25 31.5 5.25H10.5C10.1519 5.25 9.81806 5.38828 9.57192 5.63442C9.32578 5.88056 9.1875 6.2144 9.1875 6.5625V11.8125H6.7807C4.48875 11.8125 2.625 13.5795 2.625 15.75V28.875C2.625 29.2231 2.76328 29.5569 3.00942 29.8031C3.25556 30.0492 3.5894 30.1875 3.9375 30.1875H9.1875V35.4375C9.1875 35.7856 9.32578 36.1194 9.57192 36.3656C9.81806 36.6117 10.1519 36.75 10.5 36.75H31.5C31.8481 36.75 32.1819 36.6117 32.4281 36.3656C32.6742 36.1194 32.8125 35.7856 32.8125 35.4375V30.1875H38.0625C38.4106 30.1875 38.7444 30.0492 38.9906 29.8031C39.2367 29.5569 39.375 29.2231 39.375 28.875V15.75C39.375 13.5795 37.5112 11.8125 35.2193 11.8125ZM11.8125 7.875H30.1875V11.8125H11.8125V7.875ZM30.1875 34.125H11.8125V26.25H30.1875V34.125ZM36.75 27.5625H32.8125V24.9375C32.8125 24.5894 32.6742 24.2556 32.4281 24.0094C32.1819 23.7633 31.8481 23.625 31.5 23.625H10.5C10.1519 23.625 9.81806 23.7633 9.57192 24.0094C9.32578 24.2556 9.1875 24.5894 9.1875 24.9375V27.5625H5.25V15.75C5.25 15.0265 5.93742 14.4375 6.7807 14.4375H35.2193C36.0626 14.4375 36.75 15.0265 36.75 15.75V27.5625ZM32.8125 19.0312C32.8125 19.4206 32.697 19.8013 32.4807 20.125C32.2644 20.4488 31.9569 20.7011 31.5972 20.8501C31.2374 20.9991 30.8416 21.0381 30.4597 20.9622C30.0778 20.8862 29.727 20.6987 29.4516 20.4234C29.1763 20.148 28.9888 19.7972 28.9128 19.4153C28.8369 19.0334 28.8759 18.6376 29.0249 18.2778C29.1739 17.9181 29.4262 17.6106 29.75 17.3943C30.0737 17.178 30.4544 17.0625 30.8438 17.0625C31.3659 17.0625 31.8667 17.2699 32.2359 17.6391C32.6051 18.0083 32.8125 18.5091 32.8125 19.0312Z" fill="black"/>
</svg>
