<svg width="37" height="36" viewBox="0 0 37 36" fill="none" xmlns="http://www.w3.org/2000/svg">
<g clip-path="url(#clip0_84_114)">
<path d="M30.2589 11.5295V27.2113H4.12305V11.5295L17.1913 3.68896L30.2589 11.5295Z" fill="#FFA001"/>
<path d="M30.259 11.5295V27.2113H17.1914V3.68896L30.259 11.5295Z" fill="#F87F02"/>
<path d="M0.75 11.5294L4.12275 3.68848H17.1909L13.8181 11.5294H0.75Z" fill="#FFDA2D"/>
<path d="M33.6312 11.5294L30.2585 3.68848H17.1904L20.5632 11.5294H33.6312Z" fill="#FCBE00"/>
<path d="M8.32324 20.6396H10.4326V22.749H8.32324V20.6396Z" fill="#FFDA2D"/>
<path d="M36.75 24.598C36.75 28.8582 33.2962 32.312 29.036 32.312C24.775 32.312 21.3213 28.8582 21.3213 24.598C21.3213 20.3371 24.775 16.8833 29.036 16.8833C33.2962 16.8833 36.75 20.337 36.75 24.598Z" fill="#A070E4"/>
<path d="M36.7501 24.598C36.7501 28.8582 33.2964 32.312 29.0361 32.312V16.8833C33.2964 16.8833 36.7501 20.337 36.7501 24.598Z" fill="#9514FD"/>
<path d="M33.073 23.3483L29.0364 27.3848L28.3368 28.0845L24.999 24.7467L26.4911 23.2554L28.3368 25.1011L29.0364 24.4015L31.581 21.8569L33.073 23.3483Z" fill="#F3FDFF"/>
<path d="M33.0728 23.3483L29.0361 27.3848V24.4015L31.5807 21.8569L33.0728 23.3483Z" fill="#D7F3F7"/>
</g>
<defs>
<clipPath id="clip0_84_114">
<rect width="36" height="36" fill="white" transform="translate(0.75)"/>
</clipPath>
</defs>
</svg>
