<svg width="25" height="26" viewBox="0 0 25 26" fill="none" xmlns="http://www.w3.org/2000/svg">
<g clip-path="url(#clip0_3_1110)">
<path d="M3.25473 10.0601C3.25473 10.9793 3.43579 11.8896 3.78757 12.7388C4.13936 13.5881 4.65497 14.3598 5.30498 15.0098C5.95499 15.6598 6.72667 16.1754 7.57595 16.5272C8.42523 16.879 9.33548 17.0601 10.2547 17.0601C11.174 17.0601 12.0842 16.879 12.9335 16.5272C13.7828 16.1754 14.5545 15.6598 15.2045 15.0098C15.8545 14.3598 16.3701 13.5881 16.7219 12.7388C17.0737 11.8896 17.2547 10.9793 17.2547 10.0601C17.2547 9.14081 17.0737 8.23055 16.7219 7.38127C16.3701 6.532 15.8545 5.76032 15.2045 5.11031C14.5545 4.4603 13.7828 3.94468 12.9335 3.5929C12.0842 3.24112 11.174 3.06006 10.2547 3.06006C9.33548 3.06006 8.42523 3.24112 7.57595 3.5929C6.72667 3.94468 5.95499 4.4603 5.30498 5.11031C4.65497 5.76032 4.13936 6.532 3.78757 7.38127C3.43579 8.23055 3.25473 9.14081 3.25473 10.0601Z" stroke="white" stroke-width="2" stroke-linecap="round" stroke-linejoin="round"/>
<path d="M21.2547 21.0601L15.2547 15.0601" stroke="white" stroke-width="2" stroke-linecap="round" stroke-linejoin="round"/>
</g>
<defs>
<clipPath id="clip0_3_1110">
<rect width="24" height="24" fill="white" transform="translate(0.25473 0.0600586)"/>
</clipPath>
</defs>
</svg>
