<svg width="32" height="32" viewBox="0 0 32 32" fill="none" xmlns="http://www.w3.org/2000/svg">
<g clip-path="url(#clip0_42_9)">
<path fill-rule="evenodd" clip-rule="evenodd" d="M11.4752 18.1344L16.0032 21.2304L20.368 18.2192L30.152 27.872C29.8944 27.9552 29.6192 28 29.3328 28H2.6672C2.3152 28 1.9792 27.9312 1.6704 27.808L11.4752 18.1344ZM32 10.2016V25.3328C32 25.728 31.9136 26.1024 31.76 26.44L22.1696 16.9776L32 10.2016ZM1.50976e-06 10.2864L9.6672 16.8976L0.169602 26.2704C0.0571148 25.9706 -0.000339573 25.653 1.50976e-06 25.3328V10.2864ZM29.3328 4C30.8048 4 32 5.1936 32 6.6672V7.6048L15.9968 18.6368L1.50976e-06 7.696V6.6672C1.50976e-06 5.1952 1.1936 4 2.6672 4H29.3328Z" fill="white"/>
</g>
<defs>
<clipPath id="clip0_42_9">
<rect width="32" height="32" fill="white"/>
</clipPath>
</defs>
</svg>
