<svg width="37" height="36" viewBox="0 0 37 36" fill="none" xmlns="http://www.w3.org/2000/svg">
<g clip-path="url(#clip0_84_67)">
<path d="M33.3393 17.7992H26.4209V0.0351562H33.133C34.9924 0.0351562 36.4998 1.54248 36.4998 3.40192V14.6385C36.4998 16.3842 35.0847 17.7992 33.3393 17.7992Z" fill="#32F16C"/>
<path d="M33.133 0.0351562H26.4209V9.40018H36.4998V3.40192C36.4998 1.54248 34.9924 0.0351562 33.133 0.0351562Z" fill="#17D77F"/>
<path d="M29.7805 3.10419C29.9313 1.38428 31.3744 0.0351562 33.1333 0.0351562H10.1361C7.82462 0.0351562 5.95117 1.90888 5.95117 4.22013V26.6443C5.95117 28.6485 7.5755 30.2731 9.57941 30.2731H26.1399C28.1433 30.2731 29.7673 28.6496 29.7684 26.6463L29.7805 3.10419Z" fill="#99FFC2"/>
<path d="M17.2523 0.0351562H10.1361C7.82462 0.0351562 5.95117 1.90888 5.95117 4.22013V26.6443C5.95117 28.6485 7.5755 30.2728 9.57941 30.2728H14.9086C15.5582 21.2915 11.5589 10.919 11.4487 6.2883C11.3328 1.42658 17.2514 0.0354309 17.2523 0.0351562Z" fill="#32F16C"/>
<path d="M24.4027 16.447H11.3249C10.7113 16.447 10.2139 15.9499 10.2139 15.3363C10.2139 14.723 10.7113 14.2256 11.3249 14.2256H24.403C25.0163 14.2256 25.5137 14.723 25.5137 15.3363C25.5137 15.9499 25.0163 16.447 24.4027 16.447Z" fill="white"/>
<path d="M24.4027 21.0254H11.3249C10.7113 21.0254 10.2139 20.528 10.2139 19.9144C10.2139 19.3011 10.7113 18.8037 11.3249 18.8037H24.403C25.0163 18.8037 25.5137 19.3011 25.5137 19.9144C25.5137 20.528 25.0163 21.0254 24.4027 21.0254Z" fill="white"/>
<path d="M24.4027 25.6035H11.3249C10.7113 25.6035 10.2139 25.1061 10.2139 24.4926C10.2139 23.8792 10.7113 23.3818 11.3249 23.3818H24.403C25.0163 23.3818 25.5137 23.8792 25.5137 24.4926C25.5137 25.1061 25.0163 25.6035 24.4027 25.6035Z" fill="white"/>
<path d="M10.2139 19.9139C10.2139 20.5275 10.7113 21.0249 11.3249 21.0249H14.3137C14.1895 20.2762 14.0536 19.5344 13.9102 18.8032H11.3249C10.7113 18.8032 10.2139 19.3006 10.2139 19.9139Z" fill="#F3F3F3"/>
<path d="M10.2139 24.4923C10.2139 25.1057 10.7113 25.6031 11.3249 25.6031H14.8784C14.8237 24.8623 14.7482 24.1207 14.6567 23.3813H11.3246C10.7113 23.3813 10.2139 23.8788 10.2139 24.4923Z" fill="#F3F3F3"/>
<path d="M21.2034 5.76763C20.4317 5.0244 19.2817 4.90465 18.3876 5.40782C18.0674 5.58827 17.6713 5.58498 17.3508 5.40535C16.4447 4.89778 15.2769 5.02935 14.5062 5.80004C13.577 6.72921 13.5776 8.23543 14.5067 9.1646L16.7427 11.4011C17.3662 12.0246 18.3769 12.0249 19.0004 11.4014L21.2034 9.19838C22.1469 8.25493 22.1647 6.69295 21.2034 5.76763Z" fill="#F3942C"/>
<path d="M1.28133 26.4293C0.239555 25.3875 0.239555 23.6987 1.28133 22.6569L9.15826 14.7797C9.68753 14.2504 10.3841 13.9208 11.1289 13.8472L12.5898 13.7027C13.4042 13.6223 14.0884 14.3067 14.0079 15.1208L13.8634 16.582C13.7898 17.3269 13.4602 18.0231 12.931 18.5524L5.05404 26.4293C4.01226 27.4714 2.32311 27.4714 1.28133 26.4293Z" fill="#FFDAAA"/>
<path d="M9.15826 14.7798L1.28133 22.657C0.239555 23.6987 0.239555 25.3876 1.28133 26.4294C2.32311 27.4714 4.01226 27.4714 5.05404 26.4294L12.931 18.5525C13.082 18.4017 13.2161 18.2369 13.3331 18.0614L9.64935 14.3779C9.47412 14.4949 9.30932 14.629 9.15826 14.7798Z" fill="#FFCD00"/>
<path d="M1.28133 22.6568C0.239555 23.6986 0.239555 25.3875 1.28133 26.4292C2.32311 27.4713 4.01226 27.4713 5.05404 26.4292L8.5823 22.9012C6.63388 20.6433 6.03677 18.4078 5.94009 17.998L1.28133 22.6568Z" fill="#FFB600"/>
<path d="M10.7491 15.4771L12.2336 16.9616L5.3732 23.822L3.88867 22.3375L10.7491 15.4771Z" fill="#F3F3F3"/>
<path d="M3.88867 22.3379L5.37347 23.8225L7.59409 21.6018C7.13046 20.9072 6.78714 20.2508 6.53665 19.6899L3.88867 22.3379Z" fill="#696970"/>
<path d="M2.45467 21.4834L1.28133 22.6567C0.239555 23.6985 0.239555 25.3874 1.28133 26.4292C2.32311 27.4712 4.01226 27.4712 5.05404 26.4292L6.22711 25.2561L2.45467 21.4834Z" fill="#FFB0D0"/>
<path d="M6.2271 25.2561L2.45467 21.4834L1.28133 22.6567C0.635332 23.3025 0.390062 24.1967 0.544969 25.0317C2.49861 24.8394 3.74144 26.1438 4.31493 26.9521C4.58217 26.825 4.83266 26.6505 5.05403 26.4292L6.2271 25.2561Z" fill="#FF97BD"/>
<path d="M4.91592 26.0156L1.69527 22.7949C1.12371 22.2234 1.12371 21.2964 1.69527 20.7246C2.26711 20.153 3.19409 20.153 3.76592 20.7246L6.98629 23.9452C7.55813 24.5171 7.55813 25.4438 6.98629 26.0156C6.41473 26.5872 5.48776 26.5872 4.91592 26.0156Z" fill="#D8D7DA"/>
<path d="M3.30525 22.3343C3.87682 21.7625 4.80379 21.7625 5.37563 22.3343L3.76586 20.7246C3.19402 20.153 2.26704 20.153 1.69548 20.7246C1.12364 21.2964 1.12364 22.2234 1.69548 22.7949L3.30525 24.4047C2.73341 23.8329 2.73341 22.9062 3.30525 22.3343Z" fill="#C6C5CA"/>
<path d="M12.375 15.3361C12.776 15.7371 13.3583 15.8709 13.9458 15.7553L14.0084 15.1208C14.0891 14.3067 13.4047 13.6223 12.5906 13.7027L11.9559 13.7656C11.8405 14.3529 11.9743 14.9351 12.375 15.3361Z" fill="#F3F3F3"/>
</g>
<defs>
<clipPath id="clip0_84_67">
<rect width="36" height="35.9297" fill="white" transform="translate(0.5)"/>
</clipPath>
</defs>
</svg>
